#N canvas 45 23 1332 842 10;
#X obj 620 -19 iemnet/udpreceive 9001;
#X obj 620 8 OSC/unpackOSC;
#X obj 620 35 OSC/routeOSC /ch1 /ch2 /ch3 /ch4;
#X text 755 7 reciever;
#X obj 27 131 OSC/routeOSC /spec_c /hj_act /hj_mob /hj_com;
#X obj 32 295 *~ 0.7;
#X obj 136 15 tgl 15 0 empty empty empty 17 7 0 10 -262144 -1 -1 1
1;
#X obj 46 379 *~, f 4;
#X obj 224 22 hsl 128 15 0 127 0 0 empty empty empty -2 -8 0 10 -262144
-1 -1 2700 1;
#X text 313 5 VOLUME;
#X obj 47 459 *~;
#X floatatom 132 188 5 0 0 0 - - -, f 5;
#X floatatom 225 186 5 0 0 0 - - -, f 5;
#X obj 96 335 / 10;
#X obj 165 161 * 1650;
#X text 54 15 AUDIO ON/OFF;
#X obj 511 615 dac~ 1 2 3 4;
#N canvas 0 23 1223 787 bass-synth 0;
#X obj -204 291 mtof;
#X obj 42 702 *~;
#X obj -231 347 phasor~;
#X obj -220 566 vcf~ 1;
#X obj -280 448 hip~ 10;
#X obj -328 355 phasor~;
#X obj -334 311 mtof;
#X obj -209 214 + 0.05;
#X obj -328 216 - 0.05;
#X obj -110 245 loadbang;
#X obj 203 481 line~;
#X obj -266 221 mtof;
#X obj -262 299 osc~;
#X obj -173 518 +~;
#X obj -105 479 *~ 30;
#X msg 211 446 0 696;
#X msg 309 353 set 0 \$1;
#X obj 371 295 random 300;
#X obj 377 321 + 400;
#X obj 220 384 t b b;
#X obj -60 442 mtof;
#X msg -144 432 1;
#X obj -197 468 mtof;
#X msg -178 426 12;
#X obj -15 382 random 30;
#X obj -41 410 + 12;
#X msg 259 451 0.7;
#X obj 182 532 lop~ 30;
#X obj 191 507 *~;
#N canvas 70 55 473 398 dist1 0;
#X obj 126 115 hsl 128 8 1 5 0 1 empty empty empty -2 -6 0 8 -262144
-1 -1 8800 1;
#X obj 126 129 hsl 128 8 0.1 0.8 0 1 empty empty empty -2 -6 0 8 -262144
-1 -1 5500 1;
#X obj -63 93 inlet~;
#X obj -67 236 /~;
#X obj -39 177 abs~;
#X obj -24 209 +~;
#X obj -60 130 *~;
#X obj -65 277 outlet~;
#X text 101 181 needs pd >=0.42-5 or zexy;
#X connect 0 0 6 1;
#X connect 1 0 5 1;
#X connect 2 0 6 0;
#X connect 3 0 7 0;
#X connect 4 0 5 0;
#X connect 5 0 3 1;
#X connect 6 0 3 0;
#X connect 6 0 4 0;
#X coords 0 -1 1 1 160 40 1 100 100;
#X restore 41 728 pd dist1;
#X obj 354 669 *~ 0.7;
#X obj 153 133 metro 100;
#X obj -189 108 inlet;
#X obj 110 90 loadbang;
#X obj 214 94 inlet;
#X obj 435 713 outlet~;
#X connect 0 0 2 0;
#X connect 1 0 29 0;
#X connect 2 0 4 0;
#X connect 3 0 1 0;
#X connect 4 0 3 0;
#X connect 5 0 4 0;
#X connect 6 0 5 0;
#X connect 7 0 0 0;
#X connect 8 0 6 0;
#X connect 9 0 21 0;
#X connect 9 0 23 0;
#X connect 10 0 28 0;
#X connect 10 0 28 1;
#X connect 11 0 12 0;
#X connect 12 0 4 0;
#X connect 13 0 3 1;
#X connect 14 0 13 1;
#X connect 15 0 10 0;
#X connect 16 0 15 0;
#X connect 17 0 18 0;
#X connect 18 0 16 0;
#X connect 19 0 15 0;
#X connect 19 1 26 0;
#X connect 20 0 14 1;
#X connect 21 0 3 2;
#X connect 22 0 13 0;
#X connect 23 0 22 0;
#X connect 24 0 25 0;
#X connect 25 0 20 0;
#X connect 26 0 10 0;
#X connect 27 0 1 1;
#X connect 27 0 14 0;
#X connect 28 0 27 0;
#X connect 29 0 30 0;
#X connect 30 0 35 0;
#X connect 31 0 24 0;
#X connect 31 0 19 0;
#X connect 31 0 17 0;
#X connect 32 0 8 0;
#X connect 32 0 11 0;
#X connect 32 0 7 0;
#X connect 33 0 31 0;
#X connect 34 0 31 1;
#X restore 35 242 pd bass-synth;
#X obj 128 216 - 200;
#X floatatom 151 297 5 0 0 0 - - -, f 5;
#X obj 217 238 *;
#X obj 194 350 osc~;
#X obj 201 282 / 50000;
#X obj 186 460 *~ 0.1;
#X obj 228 341 * 2;
#X obj 224 365 osc~;
#X obj 266 339 * 3;
#X obj 265 364 osc~;
#X obj 265 410 *~ 0.5;
#X obj 259 315 * 1.5;
#X obj 301 369 osc~;
#X obj 358 130 OSC/routeOSC /spec_c /hj_act /hj_mob /hj_com;
#X obj 363 294 *~ 0.7;
#X obj 377 378 *~, f 4;
#X obj 378 458 *~;
#X floatatom 463 187 5 0 0 0 - - -, f 5;
#X floatatom 556 185 5 0 0 0 - - -, f 5;
#X obj 427 334 / 10;
#X obj 496 160 * 1650;
#N canvas 0 23 1223 787 bass-synth 0;
#X obj -204 291 mtof;
#X obj 42 702 *~;
#X obj -231 347 phasor~;
#X obj -220 566 vcf~ 1;
#X obj -280 448 hip~ 10;
#X obj -328 355 phasor~;
#X obj -334 311 mtof;
#X obj -209 214 + 0.05;
#X obj -328 216 - 0.05;
#X obj -110 245 loadbang;
#X obj 203 481 line~;
#X obj -266 221 mtof;
#X obj -262 299 osc~;
#X obj -173 518 +~;
#X obj -105 479 *~ 30;
#X msg 211 446 0 621;
#X msg 309 353 set 0 \$1;
#X obj 371 295 random 300;
#X obj 377 321 + 400;
#X obj 220 384 t b b;
#X obj -60 442 mtof;
#X msg -144 432 1;
#X obj -197 468 mtof;
#X msg -178 426 12;
#X obj -15 382 random 30;
#X obj -41 410 + 12;
#X msg 259 451 0.7;
#X obj 182 532 lop~ 30;
#X obj 191 507 *~;
#N canvas 70 55 473 398 dist1 0;
#X obj 126 115 hsl 128 8 1 5 0 1 empty empty empty -2 -6 0 8 -262144
-1 -1 8800 1;
#X obj 126 129 hsl 128 8 0.1 0.8 0 1 empty empty empty -2 -6 0 8 -262144
-1 -1 5500 1;
#X obj -63 93 inlet~;
#X obj -67 236 /~;
#X obj -39 177 abs~;
#X obj -24 209 +~;
#X obj -60 130 *~;
#X obj -65 277 outlet~;
#X text 101 181 needs pd >=0.42-5 or zexy;
#X connect 0 0 6 1;
#X connect 1 0 5 1;
#X connect 2 0 6 0;
#X connect 3 0 7 0;
#X connect 4 0 5 0;
#X connect 5 0 3 1;
#X connect 6 0 3 0;
#X connect 6 0 4 0;
#X coords 0 -1 1 1 160 40 1 100 100;
#X restore 41 728 pd dist1;
#X obj 354 669 *~ 0.7;
#X obj 153 133 metro 100;
#X obj -189 108 inlet;
#X obj 110 90 loadbang;
#X obj 214 94 inlet;
#X obj 435 713 outlet~;
#X connect 0 0 2 0;
#X connect 1 0 29 0;
#X connect 2 0 4 0;
#X connect 3 0 1 0;
#X connect 4 0 3 0;
#X connect 5 0 4 0;
#X connect 6 0 5 0;
#X connect 7 0 0 0;
#X connect 8 0 6 0;
#X connect 9 0 21 0;
#X connect 9 0 23 0;
#X connect 10 0 28 0;
#X connect 10 0 28 1;
#X connect 11 0 12 0;
#X connect 12 0 4 0;
#X connect 13 0 3 1;
#X connect 14 0 13 1;
#X connect 15 0 10 0;
#X connect 16 0 15 0;
#X connect 17 0 18 0;
#X connect 18 0 16 0;
#X connect 19 0 15 0;
#X connect 19 1 26 0;
#X connect 20 0 14 1;
#X connect 21 0 3 2;
#X connect 22 0 13 0;
#X connect 23 0 22 0;
#X connect 24 0 25 0;
#X connect 25 0 20 0;
#X connect 26 0 10 0;
#X connect 27 0 1 1;
#X connect 27 0 14 0;
#X connect 28 0 27 0;
#X connect 29 0 30 0;
#X connect 30 0 35 0;
#X connect 31 0 24 0;
#X connect 31 0 19 0;
#X connect 31 0 17 0;
#X connect 32 0 8 0;
#X connect 32 0 11 0;
#X connect 32 0 7 0;
#X connect 33 0 31 0;
#X connect 34 0 31 1;
#X restore 366 241 pd bass-synth;
#X obj 459 215 - 200;
#X floatatom 482 296 5 0 0 0 - - -, f 5;
#X obj 548 237 *;
#X obj 525 349 osc~;
#X obj 532 281 / 50000;
#X obj 517 459 *~ 0.1;
#X obj 559 340 * 2;
#X obj 555 364 osc~;
#X obj 597 338 * 3;
#X obj 596 363 osc~;
#X obj 596 409 *~ 0.5;
#X obj 590 314 * 1.5;
#X obj 632 368 osc~;
#X obj 679 126 OSC/routeOSC /spec_c /hj_act /hj_mob /hj_com;
#X obj 698 374 *~, f 4;
#X obj 699 454 *~;
#X floatatom 784 183 5 0 0 0 - - -, f 5;
#X floatatom 877 181 5 0 0 0 - - -, f 5;
#X obj 731 341 / 10;
#X obj 817 156 * 1650;
#N canvas 0 23 1223 787 bass-synth 0;
#X obj -204 291 mtof;
#X obj 42 702 *~;
#X obj -231 347 phasor~;
#X obj -220 566 vcf~ 1;
#X obj -280 448 hip~ 10;
#X obj -328 355 phasor~;
#X obj -334 311 mtof;
#X obj -209 214 + 0.05;
#X obj -328 216 - 0.05;
#X obj -110 245 loadbang;
#X obj 203 481 line~;
#X obj -266 221 mtof;
#X obj -262 299 osc~;
#X obj -173 518 +~;
#X obj -105 479 *~ 30;
#X msg 211 446 0 684;
#X msg 309 353 set 0 \$1;
#X obj 371 295 random 300;
#X obj 377 321 + 400;
#X obj 220 384 t b b;
#X obj -60 442 mtof;
#X msg -144 432 1;
#X obj -197 468 mtof;
#X msg -178 426 12;
#X obj -15 382 random 30;
#X obj -41 410 + 12;
#X msg 259 451 0.7;
#X obj 182 532 lop~ 30;
#X obj 191 507 *~;
#N canvas 70 55 473 398 dist1 0;
#X obj 126 115 hsl 128 8 1 5 0 1 empty empty empty -2 -6 0 8 -262144
-1 -1 8800 1;
#X obj 126 129 hsl 128 8 0.1 0.8 0 1 empty empty empty -2 -6 0 8 -262144
-1 -1 5500 1;
#X obj -63 93 inlet~;
#X obj -67 236 /~;
#X obj -39 177 abs~;
#X obj -24 209 +~;
#X obj -60 130 *~;
#X obj -65 277 outlet~;
#X text 101 181 needs pd >=0.42-5 or zexy;
#X connect 0 0 6 1;
#X connect 1 0 5 1;
#X connect 2 0 6 0;
#X connect 3 0 7 0;
#X connect 4 0 5 0;
#X connect 5 0 3 1;
#X connect 6 0 3 0;
#X connect 6 0 4 0;
#X coords 0 -1 1 1 160 40 1 100 100;
#X restore 41 728 pd dist1;
#X obj 354 669 *~ 0.7;
#X obj -189 108 inlet;
#X obj 110 90 loadbang;
#X obj 214 94 inlet;
#X obj 435 713 outlet~;
#X obj 153 133 metro 50;
#X connect 0 0 2 0;
#X connect 1 0 29 0;
#X connect 2 0 4 0;
#X connect 3 0 1 0;
#X connect 4 0 3 0;
#X connect 5 0 4 0;
#X connect 6 0 5 0;
#X connect 7 0 0 0;
#X connect 8 0 6 0;
#X connect 9 0 21 0;
#X connect 9 0 23 0;
#X connect 10 0 28 0;
#X connect 10 0 28 1;
#X connect 11 0 12 0;
#X connect 12 0 4 0;
#X connect 13 0 3 1;
#X connect 14 0 13 1;
#X connect 15 0 10 0;
#X connect 16 0 15 0;
#X connect 17 0 18 0;
#X connect 18 0 16 0;
#X connect 19 0 15 0;
#X connect 19 1 26 0;
#X connect 20 0 14 1;
#X connect 21 0 3 2;
#X connect 22 0 13 0;
#X connect 23 0 22 0;
#X connect 24 0 25 0;
#X connect 25 0 20 0;
#X connect 26 0 10 0;
#X connect 27 0 1 1;
#X connect 27 0 14 0;
#X connect 28 0 27 0;
#X connect 29 0 30 0;
#X connect 30 0 34 0;
#X connect 31 0 8 0;
#X connect 31 0 11 0;
#X connect 31 0 7 0;
#X connect 32 0 35 0;
#X connect 33 0 35 1;
#X connect 35 0 24 0;
#X connect 35 0 19 0;
#X connect 35 0 17 0;
#X restore 687 237 pd bass-synth;
#X obj 780 211 - 200;
#X floatatom 803 292 5 0 0 0 - - -, f 5;
#X obj 679 174 + 10;
#X obj 869 233 *;
#X obj 846 345 osc~;
#X obj 853 277 / 50000;
#X obj 838 455 *~ 0.1;
#X obj 880 336 * 2;
#X obj 876 360 osc~;
#X obj 918 334 * 3;
#X obj 917 359 osc~;
#X obj 917 405 *~ 0.5;
#X obj 911 310 * 1.5;
#X obj 953 364 osc~;
#X obj 988 124 OSC/routeOSC /spec_c /hj_act /hj_mob /hj_com;
#X obj 1006 367 *~, f 4;
#X obj 1007 447 *~;
#X floatatom 1092 176 5 0 0 0 - - -, f 5;
#X floatatom 1185 174 5 0 0 0 - - -, f 5;
#X obj 1056 323 / 10;
#X obj 1125 149 * 1650;
#N canvas 0 23 1223 787 bass-synth 0;
#X obj -204 291 mtof;
#X obj 42 702 *~;
#X obj -231 347 phasor~;
#X obj -220 566 vcf~ 1;
#X obj -280 448 hip~ 10;
#X obj -328 355 phasor~;
#X obj -334 311 mtof;
#X obj -209 214 + 0.05;
#X obj -328 216 - 0.05;
#X obj -110 245 loadbang;
#X obj 203 481 line~;
#X obj -266 221 mtof;
#X obj -262 299 osc~;
#X obj -173 518 +~;
#X obj -105 479 *~ 30;
#X msg 211 446 0 556;
#X msg 309 353 set 0 \$1;
#X obj 371 295 random 300;
#X obj 377 321 + 400;
#X obj 220 384 t b b;
#X obj -60 442 mtof;
#X msg -144 432 1;
#X obj -197 468 mtof;
#X msg -178 426 12;
#X obj -15 382 random 30;
#X obj -41 410 + 12;
#X msg 259 451 0.7;
#X obj 182 532 lop~ 30;
#X obj 191 507 *~;
#N canvas 70 55 473 398 dist1 0;
#X obj 126 115 hsl 128 8 1 5 0 1 empty empty empty -2 -6 0 8 -262144
-1 -1 11900 1;
#X obj 126 129 hsl 128 8 0.1 0.8 0 1 empty empty empty -2 -6 0 8 -262144
-1 -1 7600 1;
#X obj -63 93 inlet~;
#X obj -67 236 /~;
#X obj -39 177 abs~;
#X obj -24 209 +~;
#X obj -60 130 *~;
#X obj -65 277 outlet~;
#X text 101 181 needs pd >=0.42-5 or zexy;
#X connect 0 0 6 1;
#X connect 1 0 5 1;
#X connect 2 0 6 0;
#X connect 3 0 7 0;
#X connect 4 0 5 0;
#X connect 5 0 3 1;
#X connect 6 0 3 0;
#X connect 6 0 4 0;
#X coords 0 -1 1 1 160 40 1 100 100;
#X restore 41 728 pd dist1;
#X obj 354 669 *~ 0.7;
#X obj -189 108 inlet;
#X obj 110 90 loadbang;
#X obj 214 94 inlet;
#X obj 435 713 outlet~;
#X obj 153 133 metro 50;
#X connect 0 0 2 0;
#X connect 1 0 29 0;
#X connect 2 0 4 0;
#X connect 3 0 1 0;
#X connect 4 0 3 0;
#X connect 5 0 4 0;
#X connect 6 0 5 0;
#X connect 7 0 0 0;
#X connect 8 0 6 0;
#X connect 9 0 21 0;
#X connect 9 0 23 0;
#X connect 10 0 28 0;
#X connect 10 0 28 1;
#X connect 11 0 12 0;
#X connect 12 0 4 0;
#X connect 13 0 3 1;
#X connect 14 0 13 1;
#X connect 15 0 10 0;
#X connect 16 0 15 0;
#X connect 17 0 18 0;
#X connect 18 0 16 0;
#X connect 19 0 15 0;
#X connect 19 1 26 0;
#X connect 20 0 14 1;
#X connect 21 0 3 2;
#X connect 22 0 13 0;
#X connect 23 0 22 0;
#X connect 24 0 25 0;
#X connect 25 0 20 0;
#X connect 26 0 10 0;
#X connect 27 0 1 1;
#X connect 27 0 14 0;
#X connect 28 0 27 0;
#X connect 29 0 30 0;
#X connect 30 0 34 0;
#X connect 31 0 8 0;
#X connect 31 0 11 0;
#X connect 31 0 7 0;
#X connect 32 0 35 0;
#X connect 33 0 35 1;
#X connect 35 0 24 0;
#X connect 35 0 19 0;
#X connect 35 0 17 0;
#X restore 995 230 pd bass-synth;
#X obj 1088 204 - 200;
#X floatatom 1111 285 5 0 0 0 - - -, f 5;
#X obj 987 167 + 10;
#X obj 1177 226 *;
#X obj 1154 338 osc~;
#X obj 1161 270 / 50000;
#X obj 1146 448 *~ 0.1;
#X obj 1188 329 * 2;
#X obj 1184 353 osc~;
#X obj 1226 327 * 3;
#X obj 1225 352 osc~;
#X obj 1225 398 *~ 0.5;
#X obj 1219 303 * 1.5;
#X obj 1261 357 osc~;
#X text 59 579 channel 1 - frontal;
#X text 397 543 channel 2 - right temporal;
#X text 733 561 channel 3 - parieto-occipital;
#X text 1109 550 channel 4 - left temporal;
#N canvas 0 22 450 278 (subpatch) 0;
#X array ch1 100 float 3;
#A 0 -0.364879 -0.344636 -0.324543 -0.3046 -0.284838 -0.26528 -0.24594
-0.226837 -0.207991 -0.189417 -0.171149 -0.153186 -0.135544 -0.118254
-0.101318 -0.0847751 -0.0686113 -0.0528622 -0.0409297 -0.029364 -0.0181591
-0.00734794 0.00307542 0.0130561 0.022627 0.0317571 0.0404378 0.048654
0.0563941 0.0636559 0.0704321 0.0767106 0.0824727 0.0877376 0.0924756
0.0967188 0.100398 0.103576 0.106221 0.108338 0.109924 0.110981 0.111507
0.111512 0.110994 0.109944 0.108386 0.10631 0.103753 0.100658 0.0970947
0.0930446 0.0885184 0.0835275 0.0780792 0.0721897 0.0658653 0.0591257
0.0519617 0.0444097 0.0364692 0.0281828 0.0195132 0.0105181 0.00120555
-0.008422 -0.0183337 -0.0285253 -0.0389596 -0.0496414 -0.0605374 -0.0716411
-0.0829282 -0.0943794 -0.10596 -0.117686 -0.129513 -0.141416 -0.153402
-0.165423 -0.17749 -0.189547 -0.201597 -0.213618 -0.22559 -0.237495
-0.249306 -0.261002 -0.272582 -0.284016 -0.295271 -0.306359 -0.317234
-0.327911 -0.338335 -0.348509 -0.358417 -0.368044 -0.377372 -0.386382
;
#X coords 0 1 100 -1 200 140 1;
#X restore 71 682 graph;
#X obj 246 623 metro 100;
#X obj 259 584 loadbang;
#X obj 358 678 tabwrite~ ch1;
#N canvas 0 22 450 278 (subpatch) 0;
#X array ch2 100 float 3;
#A 0 1.01425 0.997872 0.981128 0.964057 0.946665 0.928999 0.91108 0.892915
0.874553 0.856006 0.837313 0.818481 0.799554 0.780548 0.761499 0.742411
0.723348 0.704291 0.6853 0.66638 0.647567 0.62888 0.61034 0.591974
0.573819 0.555867 0.538163 0.520731 0.503574 0.486732 0.470204 0.454035
0.438219 0.42279 0.407755 0.393142 0.378948 0.365216 0.35193 0.339121
0.326798 0.31497 0.303658 0.29285 0.28258 0.272841 0.263647 0.254999
0.246913 0.23938 0.23242 0.226015 0.220187 0.214926 0.210242 0.206132
0.202575 0.199607 0.197196 0.19535 0.194062 0.19333 0.19314 0.193499
0.194388 0.195809 0.197748 0.200194 0.203156 0.206586 0.210511 0.214908
0.219759 0.225053 0.230787 0.236939 0.243501 0.250455 0.257789 0.265497
0.273546 0.281951 0.290658 0.29968 0.309002 0.318597 0.328453 0.338555
0.348894 0.359443 0.370194 0.381131 0.392243 0.4035 0.414913 0.426434
0.438069 0.449805 0.461621 0.473505;
#X coords 0 1 100 -1 200 140 1;
#X restore 447 692 graph;
#X obj 358 655 tabwrite~ ch2;
#N canvas 0 22 450 278 (subpatch) 0;
#X array ch3 100 float 3;
#A 0 0.372477 0.374091 0.375844 0.37774 0.379761 0.381907 0.38417 0.386532
0.389002 0.391555 0.394194 0.39691 0.399684 0.402531 0.405413 0.40834
0.411311 0.414294 0.417305 0.420319 0.423331 0.426348 0.429334 0.432306
0.43525 0.438141 0.440995 0.443792 0.446523 0.449184 0.451767 0.454266
0.456666 0.458964 0.461159 0.463241 0.46519 0.467014 0.468706 0.47025
0.471646 0.472888 0.473968 0.47487 0.475609 0.476168 0.476537 0.476716
0.476693 0.476487 0.476057 0.475421 0.474581 0.473502 0.472212 0.470697
0.468946 0.46696 0.464731 0.462272 0.459568 0.456608 0.453408 0.449958
0.446247 0.442289 0.438077 0.433601 0.428866 0.423875 0.418626 0.413116
0.40734 0.401307 0.395016 0.388462 0.381657 0.374588 0.367258 0.359672
0.351845 0.343759 0.335419 0.326834 0.317994 0.308932 0.299619 0.290067
0.280289 0.270263 0.26003 0.249571 0.238889 0.227994 0.216877 0.20557
0.194061 0.182349 0.170446 0.158359;
#X coords 0 1 100 -1 200 140 1;
#X restore 749 687 graph;
#X obj 357 699 tabwrite~ ch3;
#N canvas 0 22 450 278 (subpatch) 0;
#X array ch4 100 float 3;
#A 0 -0.190567 -0.20097 -0.211732 -0.222875 -0.234337 -0.246128 -0.25819
-0.270528 -0.283087 -0.295852 -0.308786 -0.32187 -0.335058 -0.348325
-0.361639 -0.374968 -0.388276 -0.401528 -0.414702 -0.427753 -0.440658
-0.453369 -0.465885 -0.478135 -0.490131 -0.501803 -0.513165 -0.524146
-0.534764 -0.544955 -0.554734 -0.564042 -0.572889 -0.581238 -0.589083
-0.596396 -0.603185 -0.609415 -0.615097 -0.620204 -0.624754 -0.628718
-0.632112 -0.634932 -0.637181 -0.638861 -0.639973 -0.640549 -0.64056
-0.640061 -0.639026 -0.637511 -0.635489 -0.633026 -0.630099 -0.626775
-0.623031 -0.618933 -0.61448 -0.609715 -0.604651 -0.59934 -0.593787
-0.588048 -0.582134 -0.576093 -0.569947 -0.563737 -0.557492 -0.551247
-0.545034 -0.538884 -0.532841 -0.526916 -0.521163 -0.515596 -0.510261
-0.505168 -0.500366 -0.495859 -0.491706 -0.487885 -0.484467 -0.481435
-0.47884 -0.476666 -0.474967 -0.473721 -0.472972 -0.472705 -0.472943
-0.473689 -0.474942 -0.476713 -0.478992 -0.481784 -0.485078 -0.488876
-0.49315 -0.497908;
#X coords 0 1 100 -1 200 140 1;
#X restore 1062 684 graph;
#X obj 357 722 tabwrite~ ch4;
#N canvas 744 48 555 455 beat 0;
#X obj 218 289 osc~;
#X obj 195 182 mtof;
#X obj 275 133 t b b;
#X obj 304 274 line~;
#X obj 239 354 *~;
#X obj 280 317 clip~ 0 1;
#X msg 327 203 100;
#X obj 247 192 pack f f;
#X msg 253 161 0;
#X obj 214 259 +~;
#X obj 209 224 sig~;
#X text 365 112 len;
#X obj 489 206 osc~ 440;
#X obj 272 104 metro 200;
#X obj 263 67 loadbang;
#X obj 338 76 inlet;
#X obj 430 101 inlet;
#X obj 327 418 outlet~;
#X msg 137 141 30;
#X msg 67 154 40;
#X obj 50 20 inlet;
#X obj 50 54 f;
#X obj 60 89 >;
#X msg 103 51 1.5;
#X obj 58 116 sel 0 1;
#X connect 0 0 4 0;
#X connect 1 0 10 0;
#X connect 2 0 8 0;
#X connect 2 1 6 0;
#X connect 3 0 5 0;
#X connect 4 0 17 0;
#X connect 5 0 4 1;
#X connect 6 0 3 0;
#X connect 7 0 3 0;
#X connect 8 0 7 0;
#X connect 9 0 0 0;
#X connect 10 0 9 0;
#X connect 12 0 9 1;
#X connect 13 0 2 0;
#X connect 14 0 13 0;
#X connect 14 0 23 0;
#X connect 15 0 13 1;
#X connect 16 0 7 1;
#X connect 18 0 1 0;
#X connect 19 0 1 0;
#X connect 20 0 21 0;
#X connect 21 0 22 0;
#X connect 22 0 24 0;
#X connect 23 0 22 1;
#X connect 24 0 19 0;
#X connect 24 1 18 0;
#X restore 255 507 pd beat;
#X obj 607 493 f;
#N canvas 744 48 555 455 beat 0;
#X obj 218 289 osc~;
#X obj 195 182 mtof;
#X obj 275 133 t b b;
#X obj 304 274 line~;
#X obj 239 354 *~;
#X obj 280 317 clip~ 0 1;
#X msg 327 203 100;
#X obj 247 192 pack f f;
#X msg 253 161 0;
#X obj 214 259 +~;
#X obj 209 224 sig~;
#X text 365 112 len;
#X obj 489 206 osc~ 440;
#X obj 272 104 metro 200;
#X obj 263 67 loadbang;
#X obj 338 76 inlet;
#X obj 430 101 inlet;
#X obj 327 418 outlet~;
#X msg 137 141 30;
#X msg 67 154 40;
#X obj 50 20 inlet;
#X obj 50 54 f;
#X obj 60 89 >;
#X msg 103 67 1.5;
#X obj 58 116 sel 0 1;
#X connect 0 0 4 0;
#X connect 1 0 10 0;
#X connect 2 0 8 0;
#X connect 2 1 6 0;
#X connect 3 0 5 0;
#X connect 4 0 17 0;
#X connect 5 0 4 1;
#X connect 6 0 3 0;
#X connect 7 0 3 0;
#X connect 8 0 7 0;
#X connect 9 0 0 0;
#X connect 10 0 9 0;
#X connect 12 0 9 1;
#X connect 13 0 2 0;
#X connect 14 0 13 0;
#X connect 14 0 23 0;
#X connect 15 0 13 1;
#X connect 16 0 7 1;
#X connect 18 0 1 0;
#X connect 19 0 1 0;
#X connect 20 0 21 0;
#X connect 21 0 22 0;
#X connect 22 0 24 0;
#X connect 23 0 22 1;
#X connect 24 0 19 0;
#X connect 24 1 18 0;
#X restore 437 508 pd beat;
#N canvas 744 48 555 455 beat 0;
#X obj 218 289 osc~;
#X obj 195 182 mtof;
#X obj 275 133 t b b;
#X obj 304 274 line~;
#X obj 239 354 *~;
#X obj 280 317 clip~ 0 1;
#X msg 327 203 100;
#X obj 247 192 pack f f;
#X msg 253 161 0;
#X obj 214 259 +~;
#X obj 209 224 sig~;
#X text 365 112 len;
#X obj 489 206 osc~ 440;
#X obj 272 104 metro 200;
#X obj 263 67 loadbang;
#X obj 338 76 inlet;
#X obj 430 101 inlet;
#X obj 327 418 outlet~;
#X msg 137 141 30;
#X msg 67 154 40;
#X obj 50 20 inlet;
#X obj 50 54 f;
#X obj 60 89 >;
#X msg 103 51 1.5;
#X obj 58 116 sel 0 1;
#X connect 0 0 4 0;
#X connect 1 0 10 0;
#X connect 2 0 8 0;
#X connect 2 1 6 0;
#X connect 3 0 5 0;
#X connect 4 0 17 0;
#X connect 5 0 4 1;
#X connect 6 0 3 0;
#X connect 7 0 3 0;
#X connect 8 0 7 0;
#X connect 9 0 0 0;
#X connect 10 0 9 0;
#X connect 12 0 9 1;
#X connect 13 0 2 0;
#X connect 14 0 13 0;
#X connect 14 0 23 0;
#X connect 15 0 13 1;
#X connect 16 0 7 1;
#X connect 18 0 1 0;
#X connect 19 0 1 0;
#X connect 20 0 21 0;
#X connect 21 0 22 0;
#X connect 22 0 24 0;
#X connect 23 0 22 1;
#X connect 24 0 19 0;
#X connect 24 1 18 0;
#X restore 1088 360 pd beat;
#N canvas 744 48 555 455 beat 0;
#X obj 218 289 osc~;
#X obj 195 182 mtof;
#X obj 275 133 t b b;
#X obj 304 274 line~;
#X obj 239 354 *~;
#X obj 280 317 clip~ 0 1;
#X msg 327 203 100;
#X obj 247 192 pack f f;
#X msg 253 161 0;
#X obj 214 259 +~;
#X obj 209 224 sig~;
#X text 365 112 len;
#X obj 489 206 osc~ 440;
#X obj 272 104 metro 200;
#X obj 263 67 loadbang;
#X obj 338 76 inlet;
#X obj 430 101 inlet;
#X obj 327 418 outlet~;
#X msg 137 141 30;
#X msg 67 154 40;
#X obj 50 20 inlet;
#X obj 50 54 f;
#X obj 60 89 >;
#X msg 103 51 1.5;
#X obj 58 116 sel 0 1;
#X connect 0 0 4 0;
#X connect 1 0 10 0;
#X connect 2 0 8 0;
#X connect 2 1 6 0;
#X connect 3 0 5 0;
#X connect 4 0 17 0;
#X connect 5 0 4 1;
#X connect 6 0 3 0;
#X connect 7 0 3 0;
#X connect 8 0 7 0;
#X connect 9 0 0 0;
#X connect 10 0 9 0;
#X connect 12 0 9 1;
#X connect 13 0 2 0;
#X connect 14 0 13 0;
#X connect 14 0 23 0;
#X connect 15 0 13 1;
#X connect 16 0 7 1;
#X connect 18 0 1 0;
#X connect 19 0 1 0;
#X connect 20 0 21 0;
#X connect 21 0 22 0;
#X connect 22 0 24 0;
#X connect 23 0 22 1;
#X connect 24 0 19 0;
#X connect 24 1 18 0;
#X restore 906 460 pd beat;
#X text 1059 -5 metro;
#X text 992 60 len;
#X floatatom 1058 11 5 0 0 0 - - -, f 5;
#X floatatom 988 83 5 0 0 0 - - -, f 5;
#X obj 750 391 *~ 0.4;
#X obj 1082 398 *~ 0.4;
#X floatatom 1110 -38 5 0 0 0 - - -, f 5;
#X obj 1041 456 / 10;
#X text 1089 -59 beat volume;
#X text 449 29 metro;
#X text 455 -65 len;
#X floatatom 452 50 5 0 0 0 - - -, f 5;
#X floatatom 451 -48 5 0 0 0 - - -, f 5;
#X floatatom 445 -5 5 0 0 0 - - -, f 5;
#X text 445 -17 beat volume;
#X obj 121 456 / 10;
#X obj 99 380 *~ 0.4;
#X obj 432 383 *~ 0.4;
#X obj 27 179 + 20;
#X obj 358 178 + 20;
#X obj 1125 13 hsl 128 15 0 127 0 0 empty empty empty -2 -8 0 10 -262144
-1 -1 2200 1;
#X text 1214 -4 VOLUME;
#X text 56 599 channel 1 - left 1-16Hz;
#X text 407 564 channel 2 - right 1-16Hz;
#X text 764 581 channel 3 - left 16-40Hz;
#X text 1107 569 channel 4 - right 16-40Hz;
#X obj 940 218 +;
#X obj 944 240 / 2;
#X obj 945 265 * 100;
#N canvas 160 67 1033 687 hightone 0;
#X obj 82 42 inlet;
#X obj 85 78 div 10;
#X obj 88 119 sel 0 1 2;
#X obj 189 387 +;
#X obj 228 178 loadbang;
#X obj 438 172 osc~;
#X obj 488 368 outlet~;
#X obj 484 137 * 2;
#X obj 484 171 osc~;
#X obj 486 212 *~ 0.5;
#X obj 543 142 * 3;
#X obj 541 171 osc~;
#X obj 545 212 *~ 0.4;
#X obj 595 170 osc~;
#X obj 600 213 *~ 0.4;
#X obj 597 145 * 0.5;
#X obj 681 143 * 1.66667;
#X obj 678 170 osc~;
#X obj 670 209 *~ 0.1;
#X obj 246 53 metro 300;
#X obj 261 84 f;
#X obj 296 85 + 1;
#X obj 262 109 % 8;
#X obj 322 182 + 60;
#X obj 366 67 mtof;
#X obj 249 19 bng 15 250 50 0 empty empty empty 17 7 0 10 -262144 -1
-1;
#X obj 260 139 tabread sequence;
#N canvas 0 22 450 278 (subpatch) 0;
#X array sequence 100 float 3;
#A 0 0 1 1 2 1 3 2 5 7 6 1 3 4 0 0 0 0 0 0 0 0 0 0 0 0 0 0 0 0 0 0
0 0 0 0 0 0 0 0 0 0 0 0 0 0 0 0 0 0 0 0 0 0 0 0 0 0 0 0 0 0 0 0 0 0
0 0 0 0 0 0 0 0 0 0 0 0 0 0 0 0 0 0 0 0 0 0 0 0 0 0 0 0 0 0 0 0 0 0
0;
#X coords 0 24 16 0 200 140 1 0 0;
#X restore 743 288 graph;
#X msg 90 167 40;
#X msg 127 168 42;
#X msg 167 169 44;
#X obj 226 219 random 10;
#X obj 487 332 *~ 0.2;
#X msg 750 453 \; sequence 0 0 1 1 2 1 3 2 5 7 6 1 3 4 0 4;
#X connect 0 0 1 0;
#X connect 1 0 2 0;
#X connect 2 0 28 0;
#X connect 2 1 29 0;
#X connect 2 2 30 0;
#X connect 3 0 23 1;
#X connect 4 0 19 0;
#X connect 4 0 33 0;
#X connect 4 0 31 0;
#X connect 5 0 32 0;
#X connect 7 0 8 0;
#X connect 8 0 9 0;
#X connect 9 0 32 0;
#X connect 10 0 11 0;
#X connect 11 0 12 0;
#X connect 12 0 32 0;
#X connect 13 0 14 0;
#X connect 14 0 32 0;
#X connect 15 0 13 0;
#X connect 16 0 17 0;
#X connect 17 0 18 0;
#X connect 18 0 32 0;
#X connect 19 0 20 0;
#X connect 20 0 21 0;
#X connect 20 0 22 0;
#X connect 21 0 20 1;
#X connect 22 0 26 0;
#X connect 23 0 24 0;
#X connect 24 0 5 0;
#X connect 24 0 7 0;
#X connect 24 0 10 0;
#X connect 24 0 15 0;
#X connect 24 0 16 0;
#X connect 25 0 19 0;
#X connect 25 0 33 0;
#X connect 25 0 31 0;
#X connect 26 0 23 0;
#X connect 28 0 3 0;
#X connect 29 0 3 0;
#X connect 30 0 3 0;
#X connect 31 0 3 1;
#X connect 32 0 6 0;
#X restore 91 260 pd hightone;
#N canvas 0 22 1033 687 hightone 0;
#X obj 82 42 inlet;
#X obj 85 78 div 10;
#X obj 88 119 sel 0 1 2;
#X obj 189 387 +;
#X obj 228 178 loadbang;
#X obj 438 172 osc~;
#X obj 488 368 outlet~;
#X obj 484 137 * 2;
#X obj 484 171 osc~;
#X obj 486 212 *~ 0.5;
#X obj 543 142 * 3;
#X obj 541 171 osc~;
#X obj 545 212 *~ 0.4;
#X obj 595 170 osc~;
#X obj 600 213 *~ 0.4;
#X obj 597 145 * 0.5;
#X obj 681 143 * 1.66667;
#X obj 678 170 osc~;
#X obj 670 209 *~ 0.1;
#X obj 246 53 metro 300;
#X obj 261 84 f;
#X obj 296 85 + 1;
#X obj 262 109 % 8;
#X obj 322 182 + 60;
#X obj 366 67 mtof;
#X obj 487 332 *~ 0.1;
#X obj 249 19 bng 15 250 50 0 empty empty empty 17 7 0 10 -262144 -1
-1;
#X obj 260 139 tabread sequence;
#N canvas 0 22 450 278 (subpatch) 0;
#X array sequence 100 float 3;
#A 0 0 1 1 2 1 3 2 5 7 6 1 3 4 0 0 0 0 0 0 0 0 0 0 0 0 0 0 0 0 0 0
0 0 0 0 0 0 0 0 0 0 0 0 0 0 0 0 0 0 0 0 0 0 0 0 0 0 0 0 0 0 0 0 0 0
0 0 0 0 0 0 0 0 0 0 0 0 0 0 0 0 0 0 0 0 0 0 0 0 0 0 0 0 0 0 0 0 0 0
0;
#X coords 0 24 16 0 200 140 1 0 0;
#X restore 743 288 graph;
#X msg 90 167 40;
#X msg 127 168 42;
#X msg 167 169 44;
#X obj 226 219 random 10;
#X msg 750 453 \; sequence 0 0 1 1 2 1 3 2 5 7 6 1 3 4 0 4;
#X connect 0 0 1 0;
#X connect 1 0 2 0;
#X connect 2 0 29 0;
#X connect 2 1 30 0;
#X connect 2 2 31 0;
#X connect 3 0 23 1;
#X connect 4 0 19 0;
#X connect 4 0 33 0;
#X connect 4 0 32 0;
#X connect 5 0 25 0;
#X connect 7 0 8 0;
#X connect 8 0 9 0;
#X connect 9 0 25 0;
#X connect 10 0 11 0;
#X connect 11 0 12 0;
#X connect 12 0 25 0;
#X connect 13 0 14 0;
#X connect 14 0 25 0;
#X connect 15 0 13 0;
#X connect 16 0 17 0;
#X connect 17 0 18 0;
#X connect 18 0 25 0;
#X connect 19 0 20 0;
#X connect 20 0 21 0;
#X connect 20 0 22 0;
#X connect 21 0 20 1;
#X connect 22 0 27 0;
#X connect 23 0 24 0;
#X connect 24 0 5 0;
#X connect 24 0 7 0;
#X connect 24 0 10 0;
#X connect 24 0 15 0;
#X connect 24 0 16 0;
#X connect 25 0 6 0;
#X connect 26 0 19 0;
#X connect 26 0 33 0;
#X connect 26 0 32 0;
#X connect 27 0 23 0;
#X connect 29 0 3 0;
#X connect 30 0 3 0;
#X connect 31 0 3 0;
#X connect 32 0 3 1;
#X restore 587 207 pd hightone;
#X obj 992 283 *~ 1.7;
#X obj 684 290 *~ 1.7;
#N canvas 0 22 1048 671 lowtone 0;
#X obj 82 42 inlet;
#X obj 85 78 div 10;
#X obj 88 119 sel 0 1 2;
#X obj 189 387 +;
#X obj 676 15 loadbang;
#X obj 438 172 osc~;
#X obj 488 368 outlet~;
#X obj 484 137 * 2;
#X obj 484 171 osc~;
#X obj 486 212 *~ 0.5;
#X obj 543 142 * 3;
#X obj 541 171 osc~;
#X obj 545 212 *~ 0.4;
#X obj 595 170 osc~;
#X obj 600 213 *~ 0.4;
#X obj 597 145 * 0.5;
#X obj 261 84 f;
#X obj 296 85 + 1;
#X obj 262 109 % 8;
#X obj 366 67 mtof;
#X obj 651 17 bng 15 250 50 0 empty empty empty 17 7 0 10 -262144 -1
-1;
#X obj 260 139 tabread sequence;
#N canvas 0 22 450 278 (subpatch) 0;
#X array sequence 100 float 3;
#A 0 0 1 1 2 1 3 2 5 7 6 1 3 4 0 0 0 0 0 0 0 0 0 0 0 0 0 0 0 0 0 0
0 0 0 0 0 0 0 0 0 0 0 0 0 0 0 0 0 0 0 0 0 0 0 0 0 0 0 0 0 0 0 0 0 0
0 0 0 0 0 0 0 0 0 0 0 0 0 0 0 0 0 0 0 0 0 0 0 0 0 0 0 0 0 0 0 0 0 0
0;
#X coords 0 24 16 0 200 140 1 0 0;
#X restore 743 288 graph;
#X floatatom 375 212 5 0 0 0 - - -, f 5;
#X obj 322 182 + 45;
#X obj 253 47 metro 400;
#X obj 226 219 random 20;
#X msg 90 167 30;
#X msg 127 168 32;
#X msg 167 169 34;
#X obj 487 332 *~ 0.3;
#X msg 750 453 \; sequence 0 1 2 1 3 4 5 7 6 6 6 4 0 1 4 7;
#X connect 0 0 1 0;
#X connect 1 0 2 0;
#X connect 2 0 27 0;
#X connect 2 1 28 0;
#X connect 2 2 29 0;
#X connect 3 0 24 1;
#X connect 4 0 31 0;
#X connect 4 0 25 0;
#X connect 4 0 26 0;
#X connect 5 0 30 0;
#X connect 7 0 8 0;
#X connect 8 0 9 0;
#X connect 9 0 30 0;
#X connect 10 0 11 0;
#X connect 11 0 12 0;
#X connect 12 0 30 0;
#X connect 13 0 14 0;
#X connect 14 0 30 0;
#X connect 15 0 13 0;
#X connect 16 0 17 0;
#X connect 16 0 18 0;
#X connect 17 0 16 1;
#X connect 18 0 21 0;
#X connect 19 0 5 0;
#X connect 19 0 7 0;
#X connect 19 0 10 0;
#X connect 19 0 15 0;
#X connect 20 0 31 0;
#X connect 20 0 25 0;
#X connect 20 0 26 0;
#X connect 21 0 24 0;
#X connect 24 0 19 0;
#X connect 24 0 23 0;
#X connect 25 0 16 0;
#X connect 26 0 3 1;
#X connect 27 0 3 0;
#X connect 28 0 3 0;
#X connect 29 0 3 0;
#X connect 30 0 6 0;
#X restore 763 273 pd lowtone;
#N canvas 0 22 1048 671 lowtone 0;
#X obj 82 42 inlet;
#X obj 85 78 div 10;
#X obj 88 119 sel 0 1 2;
#X obj 189 387 +;
#X obj 676 15 loadbang;
#X obj 438 172 osc~;
#X obj 488 368 outlet~;
#X obj 484 137 * 2;
#X obj 484 171 osc~;
#X obj 486 212 *~ 0.5;
#X obj 543 142 * 3;
#X obj 541 171 osc~;
#X obj 545 212 *~ 0.4;
#X obj 595 170 osc~;
#X obj 600 213 *~ 0.4;
#X obj 597 145 * 0.5;
#X obj 261 84 f;
#X obj 296 85 + 1;
#X obj 262 109 % 8;
#X obj 366 67 mtof;
#X obj 651 17 bng 15 250 50 0 empty empty empty 17 7 0 10 -262144 -1
-1;
#X obj 260 139 tabread sequence;
#N canvas 0 22 450 278 (subpatch) 0;
#X array sequence 100 float 3;
#A 0 0 1 1 2 1 3 2 5 7 6 1 3 4 0 0 0 0 0 0 0 0 0 0 0 0 0 0 0 0 0 0
0 0 0 0 0 0 0 0 0 0 0 0 0 0 0 0 0 0 0 0 0 0 0 0 0 0 0 0 0 0 0 0 0 0
0 0 0 0 0 0 0 0 0 0 0 0 0 0 0 0 0 0 0 0 0 0 0 0 0 0 0 0 0 0 0 0 0 0
0;
#X coords 0 24 16 0 200 140 1 0 0;
#X restore 743 288 graph;
#X floatatom 375 212 5 0 0 0 - - -, f 5;
#X obj 322 182 + 45;
#X obj 253 47 metro 400;
#X obj 226 219 random 20;
#X msg 90 167 30;
#X msg 127 168 32;
#X msg 167 169 34;
#X obj 487 332 *~ 0.3;
#X msg 750 453 \; sequence 0 1 2 1 3 4 5 7 6 6 6 4 0 1 4 7;
#X connect 0 0 1 0;
#X connect 1 0 2 0;
#X connect 2 0 27 0;
#X connect 2 1 28 0;
#X connect 2 2 29 0;
#X connect 3 0 24 1;
#X connect 4 0 31 0;
#X connect 4 0 25 0;
#X connect 4 0 26 0;
#X connect 5 0 30 0;
#X connect 7 0 8 0;
#X connect 8 0 9 0;
#X connect 9 0 30 0;
#X connect 10 0 11 0;
#X connect 11 0 12 0;
#X connect 12 0 30 0;
#X connect 13 0 14 0;
#X connect 14 0 30 0;
#X connect 15 0 13 0;
#X connect 16 0 17 0;
#X connect 16 0 18 0;
#X connect 17 0 16 1;
#X connect 18 0 21 0;
#X connect 19 0 5 0;
#X connect 19 0 7 0;
#X connect 19 0 10 0;
#X connect 19 0 15 0;
#X connect 20 0 31 0;
#X connect 20 0 25 0;
#X connect 20 0 26 0;
#X connect 21 0 24 0;
#X connect 24 0 19 0;
#X connect 24 0 23 0;
#X connect 25 0 16 0;
#X connect 26 0 3 1;
#X connect 27 0 3 0;
#X connect 28 0 3 0;
#X connect 29 0 3 0;
#X connect 30 0 6 0;
#X restore 1219 206 pd lowtone;
#X connect 0 0 1 0;
#X connect 1 0 2 0;
#X connect 2 0 4 0;
#X connect 2 1 31 0;
#X connect 2 2 53 0;
#X connect 2 3 75 0;
#X connect 4 0 134 0;
#X connect 4 1 22 0;
#X connect 4 2 14 0;
#X connect 4 3 12 0;
#X connect 4 3 111 0;
#X connect 5 0 7 0;
#X connect 6 0 10 1;
#X connect 6 0 34 1;
#X connect 6 0 55 1;
#X connect 6 0 77 1;
#X connect 7 0 10 0;
#X connect 8 0 13 0;
#X connect 8 0 37 0;
#X connect 10 0 104 0;
#X connect 10 0 16 0;
#X connect 11 0 18 0;
#X connect 12 0 20 0;
#X connect 12 0 29 1;
#X connect 13 0 7 1;
#X connect 14 0 11 0;
#X connect 17 0 5 0;
#X connect 18 0 17 1;
#X connect 20 0 134 1;
#X connect 21 0 23 0;
#X connect 22 0 21 0;
#X connect 22 0 24 0;
#X connect 22 0 26 0;
#X connect 22 0 29 0;
#X connect 23 0 7 0;
#X connect 24 0 25 0;
#X connect 25 0 23 0;
#X connect 26 0 27 0;
#X connect 27 0 28 0;
#X connect 28 0 23 0;
#X connect 29 0 30 0;
#X connect 30 0 23 0;
#X connect 31 0 135 0;
#X connect 31 1 44 0;
#X connect 31 2 38 0;
#X connect 31 3 36 0;
#X connect 31 3 113 0;
#X connect 32 0 33 0;
#X connect 33 0 34 0;
#X connect 34 0 106 0;
#X connect 34 0 16 1;
#X connect 35 0 40 0;
#X connect 36 0 42 0;
#X connect 36 0 51 1;
#X connect 37 0 33 1;
#X connect 38 0 35 0;
#X connect 39 0 32 0;
#X connect 40 0 39 1;
#X connect 42 0 135 1;
#X connect 43 0 45 0;
#X connect 44 0 43 0;
#X connect 44 0 46 0;
#X connect 44 0 48 0;
#X connect 44 0 51 0;
#X connect 45 0 33 0;
#X connect 46 0 47 0;
#X connect 47 0 45 0;
#X connect 48 0 49 0;
#X connect 49 0 50 0;
#X connect 50 0 45 0;
#X connect 51 0 52 0;
#X connect 52 0 45 0;
#X connect 53 0 63 0;
#X connect 53 1 66 0;
#X connect 53 2 59 0;
#X connect 53 3 57 0;
#X connect 53 3 115 0;
#X connect 54 0 55 0;
#X connect 55 0 108 0;
#X connect 55 0 16 2;
#X connect 56 0 61 0;
#X connect 57 0 64 0;
#X connect 57 0 73 1;
#X connect 57 0 142 0;
#X connect 58 0 54 1;
#X connect 59 0 56 0;
#X connect 60 0 148 0;
#X connect 61 0 60 1;
#X connect 63 0 60 0;
#X connect 63 0 149 0;
#X connect 64 0 63 1;
#X connect 65 0 67 0;
#X connect 66 0 65 0;
#X connect 66 0 68 0;
#X connect 66 0 70 0;
#X connect 66 0 73 0;
#X connect 67 0 54 0;
#X connect 68 0 69 0;
#X connect 69 0 67 0;
#X connect 70 0 71 0;
#X connect 71 0 72 0;
#X connect 72 0 67 0;
#X connect 73 0 74 0;
#X connect 74 0 67 0;
#X connect 75 0 85 0;
#X connect 75 1 88 0;
#X connect 75 2 81 0;
#X connect 75 3 79 0;
#X connect 75 3 114 0;
#X connect 76 0 77 0;
#X connect 77 0 16 3;
#X connect 77 0 110 0;
#X connect 78 0 83 0;
#X connect 79 0 86 0;
#X connect 79 0 95 1;
#X connect 79 0 142 1;
#X connect 80 0 76 1;
#X connect 81 0 78 0;
#X connect 82 0 147 0;
#X connect 83 0 82 1;
#X connect 85 0 82 0;
#X connect 85 0 150 0;
#X connect 86 0 85 1;
#X connect 87 0 89 0;
#X connect 88 0 87 0;
#X connect 88 0 90 0;
#X connect 88 0 92 0;
#X connect 88 0 95 0;
#X connect 89 0 76 0;
#X connect 90 0 91 0;
#X connect 91 0 89 0;
#X connect 92 0 93 0;
#X connect 93 0 94 0;
#X connect 94 0 89 0;
#X connect 95 0 96 0;
#X connect 96 0 89 0;
#X connect 102 0 104 0;
#X connect 102 0 106 0;
#X connect 102 0 108 0;
#X connect 102 0 110 0;
#X connect 103 0 102 0;
#X connect 111 0 132 0;
#X connect 113 0 133 0;
#X connect 114 0 121 0;
#X connect 115 0 120 0;
#X connect 118 0 115 1;
#X connect 118 0 114 1;
#X connect 119 0 115 2;
#X connect 119 0 114 2;
#X connect 120 0 54 0;
#X connect 121 0 76 0;
#X connect 122 0 123 0;
#X connect 123 0 121 1;
#X connect 123 0 120 1;
#X connect 127 0 113 1;
#X connect 127 0 111 1;
#X connect 128 0 113 2;
#X connect 128 0 111 2;
#X connect 129 0 131 0;
#X connect 131 0 132 1;
#X connect 131 0 133 1;
#X connect 132 0 7 0;
#X connect 133 0 33 0;
#X connect 134 0 17 0;
#X connect 134 0 145 0;
#X connect 135 0 39 0;
#X connect 135 0 146 0;
#X connect 136 0 80 0;
#X connect 136 0 58 0;
#X connect 142 0 143 0;
#X connect 143 0 144 0;
#X connect 144 0 119 0;
#X connect 145 0 7 0;
#X connect 146 0 33 0;
#X connect 147 0 76 0;
#X connect 148 0 54 0;
#X connect 149 0 54 0;
#X connect 150 0 76 0;
