#N canvas 111 105 1283 655 10;
#X obj 548 8 iemnet/udpreceive 9001;
#X obj 548 35 OSC/unpackOSC;
#X obj 548 62 OSC/routeOSC /ch1 /ch2 /ch3 /ch4;
#X text 683 34 reciever;
#X obj 27 131 OSC/routeOSC /spec_c /hj_act /hj_mob /hj_com;
#X text 237 114 channel 1;
#X obj 350 131 OSC/routeOSC /spec_c /hj_act /hj_mob /hj_com;
#X obj 987 131 OSC/routeOSC /spec_c /hj_act /hj_mob /hj_com;
#X obj 678 131 OSC/routeOSC /spec_c /hj_act /hj_mob /hj_com;
#X text 561 116 channel 2;
#X text 846 115 channel 3;
#X text 1196 112 channel 4;
#X obj 681 633 dac~;
#X obj 32 295 *~ 0.7;
#X obj 27 240 osc~;
#X obj 136 15 tgl 15 0 empty empty empty 17 7 0 10 -262144 -1 -1 0
1;
#X obj 27 158 * 10;
#X obj 46 379 *~, f 4;
#X obj 224 22 hsl 128 15 0 127 0 0 empty empty empty -2 -8 0 10 -262144
-1 -1 100 1;
#X text 313 5 VOLUME;
#X obj 47 459 *~;
#X floatatom 27 214 5 0 0 0 - - -, f 5;
#X obj 27 185 + 130;
#X floatatom 81 191 5 0 0 0 - - -, f 5;
#X floatatom 168 199 5 0 0 0 - - -, f 5;
#X floatatom 225 186 5 0 0 0 - - -, f 5;
#X floatatom 230 57 5 0 0 0 - - -, f 5;
#X obj 79 237 osc~;
#X obj 96 335 / 10;
#X obj 82 161 * 75;
#X obj 166 233 phasor~;
#X obj 165 161 * 1650;
#X obj 361 301 *~ 0.7;
#X obj 356 246 osc~;
#X obj 356 164 * 10;
#X obj 375 385 *~, f 4;
#X obj 376 465 *~;
#X floatatom 356 220 5 0 0 0 - - -, f 5;
#X obj 356 191 + 130;
#X floatatom 410 197 5 0 0 0 - - -, f 5;
#X floatatom 497 205 5 0 0 0 - - -, f 5;
#X floatatom 554 192 5 0 0 0 - - -, f 5;
#X obj 408 243 osc~;
#X obj 425 341 / 10;
#X obj 411 167 * 75;
#X obj 495 239 phasor~;
#X obj 494 167 * 1650;
#X obj 684 293 *~ 0.7;
#X obj 679 238 osc~;
#X obj 679 156 * 10;
#X obj 698 377 *~, f 4;
#X obj 699 457 *~;
#X floatatom 679 212 5 0 0 0 - - -, f 5;
#X obj 679 183 + 130;
#X floatatom 733 189 5 0 0 0 - - -, f 5;
#X floatatom 820 197 5 0 0 0 - - -, f 5;
#X floatatom 877 184 5 0 0 0 - - -, f 5;
#X obj 731 235 osc~;
#X obj 748 333 / 10;
#X obj 734 159 * 75;
#X obj 818 231 phasor~;
#X obj 817 159 * 1650;
#X obj 991 300 *~ 0.7;
#X obj 986 245 osc~;
#X obj 986 163 * 10;
#X obj 1005 384 *~, f 4;
#X obj 1006 464 *~;
#X floatatom 986 219 5 0 0 0 - - -, f 5;
#X obj 986 190 + 130;
#X floatatom 1040 196 5 0 0 0 - - -, f 5;
#X floatatom 1127 204 5 0 0 0 - - -, f 5;
#X floatatom 1184 191 5 0 0 0 - - -, f 5;
#X obj 1038 242 osc~;
#X obj 1055 340 / 10;
#X obj 1041 166 * 75;
#X obj 1125 238 phasor~;
#X obj 1124 166 * 1650;
#X text 54 15 AUDIO ON/OFF;
#X connect 0 0 1 0;
#X connect 1 0 2 0;
#X connect 2 0 4 0;
#X connect 2 1 6 0;
#X connect 2 2 8 0;
#X connect 2 3 7 0;
#X connect 4 0 16 0;
#X connect 4 1 29 0;
#X connect 4 2 31 0;
#X connect 4 3 25 0;
#X connect 6 0 34 0;
#X connect 6 1 44 0;
#X connect 6 2 46 0;
#X connect 6 3 41 0;
#X connect 7 0 64 0;
#X connect 7 1 74 0;
#X connect 7 2 76 0;
#X connect 7 3 71 0;
#X connect 8 0 49 0;
#X connect 8 1 59 0;
#X connect 8 2 61 0;
#X connect 8 3 56 0;
#X connect 13 0 17 0;
#X connect 14 0 13 0;
#X connect 15 0 20 1;
#X connect 15 0 36 1;
#X connect 15 0 51 1;
#X connect 15 0 66 1;
#X connect 16 0 22 0;
#X connect 17 0 20 0;
#X connect 18 0 26 0;
#X connect 18 0 28 0;
#X connect 18 0 43 0;
#X connect 18 0 73 0;
#X connect 18 0 58 0;
#X connect 20 0 12 0;
#X connect 21 0 14 0;
#X connect 22 0 21 0;
#X connect 23 0 27 0;
#X connect 24 0 30 0;
#X connect 27 0 13 0;
#X connect 28 0 17 1;
#X connect 29 0 23 0;
#X connect 30 0 13 0;
#X connect 31 0 24 0;
#X connect 32 0 35 0;
#X connect 33 0 32 0;
#X connect 34 0 38 0;
#X connect 35 0 36 0;
#X connect 36 0 12 0;
#X connect 37 0 33 0;
#X connect 38 0 37 0;
#X connect 39 0 42 0;
#X connect 40 0 45 0;
#X connect 42 0 32 0;
#X connect 43 0 35 1;
#X connect 44 0 39 0;
#X connect 45 0 32 0;
#X connect 46 0 40 0;
#X connect 47 0 50 0;
#X connect 48 0 47 0;
#X connect 49 0 53 0;
#X connect 50 0 51 0;
#X connect 51 0 12 1;
#X connect 52 0 48 0;
#X connect 53 0 52 0;
#X connect 54 0 57 0;
#X connect 55 0 60 0;
#X connect 57 0 47 0;
#X connect 58 0 50 1;
#X connect 59 0 54 0;
#X connect 60 0 47 0;
#X connect 61 0 55 0;
#X connect 62 0 65 0;
#X connect 63 0 62 0;
#X connect 64 0 68 0;
#X connect 65 0 66 0;
#X connect 66 0 12 1;
#X connect 67 0 63 0;
#X connect 68 0 67 0;
#X connect 69 0 72 0;
#X connect 70 0 75 0;
#X connect 72 0 62 0;
#X connect 73 0 65 1;
#X connect 74 0 69 0;
#X connect 75 0 62 0;
#X connect 76 0 70 0;
