#N canvas 49 32 1332 842 10;
#X obj 620 -19 iemnet/udpreceive 9001;
#X obj 620 8 OSC/unpackOSC;
#X obj 620 35 OSC/routeOSC /ch1 /ch2 /ch3 /ch4;
#X text 755 7 reciever;
#X obj 27 131 OSC/routeOSC /spec_c /hj_act /hj_mob /hj_com;
#X obj 32 295 *~ 0.7;
#X obj 136 15 tgl 15 0 empty empty empty 17 7 0 10 -262144 -1 -1 1
1;
#X obj 46 379 *~, f 4;
#X obj 224 22 hsl 128 15 0 127 0 0 empty empty empty -2 -8 0 10 -262144
-1 -1 2200 1;
#X text 313 5 VOLUME;
#X obj 47 459 *~;
#X floatatom 132 188 5 0 0 0 - - -, f 5;
#X floatatom 225 186 5 0 0 0 - - -, f 5;
#X obj 96 335 / 10;
#X obj 165 161 * 1650;
#X text 54 15 AUDIO ON/OFF;
#X obj 511 615 dac~ 1 2 3 4;
#N canvas 0 23 1223 787 bass-synth 0;
#X obj -204 291 mtof;
#X obj 42 702 *~;
#X obj -231 347 phasor~;
#X obj -220 566 vcf~ 1;
#X obj -280 448 hip~ 10;
#X obj -328 355 phasor~;
#X obj -334 311 mtof;
#X obj -209 214 + 0.05;
#X obj -328 216 - 0.05;
#X obj -110 245 loadbang;
#X obj 203 481 line~;
#X obj -266 221 mtof;
#X obj -262 299 osc~;
#X obj -173 518 +~;
#X obj -105 479 *~ 30;
#X msg 211 446 0 648;
#X msg 309 353 set 0 \$1;
#X obj 371 295 random 300;
#X obj 377 321 + 400;
#X obj 220 384 t b b;
#X obj -60 442 mtof;
#X msg -144 432 1;
#X obj -197 468 mtof;
#X msg -178 426 12;
#X obj -15 382 random 30;
#X obj -41 410 + 12;
#X msg 259 451 0.7;
#X obj 182 532 lop~ 30;
#X obj 191 507 *~;
#N canvas 70 55 473 398 dist1 0;
#X obj 126 115 hsl 128 8 1 5 0 1 empty empty empty -2 -6 0 8 -262144
-1 -1 8800 1;
#X obj 126 129 hsl 128 8 0.1 0.8 0 1 empty empty empty -2 -6 0 8 -262144
-1 -1 5500 1;
#X obj -63 93 inlet~;
#X obj -67 236 /~;
#X obj -39 177 abs~;
#X obj -24 209 +~;
#X obj -60 130 *~;
#X obj -65 277 outlet~;
#X text 101 181 needs pd >=0.42-5 or zexy;
#X connect 0 0 6 1;
#X connect 1 0 5 1;
#X connect 2 0 6 0;
#X connect 3 0 7 0;
#X connect 4 0 5 0;
#X connect 5 0 3 1;
#X connect 6 0 3 0;
#X connect 6 0 4 0;
#X coords 0 -1 1 1 160 40 1 100 100;
#X restore 41 728 pd dist1;
#X obj 354 669 *~ 0.7;
#X obj 153 133 metro 100;
#X obj -189 108 inlet;
#X obj 110 90 loadbang;
#X obj 214 94 inlet;
#X obj 435 713 outlet~;
#X connect 0 0 2 0;
#X connect 1 0 29 0;
#X connect 2 0 4 0;
#X connect 3 0 1 0;
#X connect 4 0 3 0;
#X connect 5 0 4 0;
#X connect 6 0 5 0;
#X connect 7 0 0 0;
#X connect 8 0 6 0;
#X connect 9 0 21 0;
#X connect 9 0 23 0;
#X connect 10 0 28 0;
#X connect 10 0 28 1;
#X connect 11 0 12 0;
#X connect 12 0 4 0;
#X connect 13 0 3 1;
#X connect 14 0 13 1;
#X connect 15 0 10 0;
#X connect 16 0 15 0;
#X connect 17 0 18 0;
#X connect 18 0 16 0;
#X connect 19 0 15 0;
#X connect 19 1 26 0;
#X connect 20 0 14 1;
#X connect 21 0 3 2;
#X connect 22 0 13 0;
#X connect 23 0 22 0;
#X connect 24 0 25 0;
#X connect 25 0 20 0;
#X connect 26 0 10 0;
#X connect 27 0 1 1;
#X connect 27 0 14 0;
#X connect 28 0 27 0;
#X connect 29 0 30 0;
#X connect 30 0 35 0;
#X connect 31 0 24 0;
#X connect 31 0 19 0;
#X connect 31 0 17 0;
#X connect 32 0 8 0;
#X connect 32 0 11 0;
#X connect 32 0 7 0;
#X connect 33 0 31 0;
#X connect 34 0 31 1;
#X restore 35 242 pd bass-synth;
#X obj 128 216 - 200;
#X floatatom 151 297 5 0 0 0 - - -, f 5;
#X obj 27 179 + 10;
#X obj 217 238 *;
#X obj 194 350 osc~;
#X obj 201 282 / 50000;
#X obj 186 460 *~ 0.1;
#X obj 228 341 * 2;
#X obj 224 365 osc~;
#X obj 266 339 * 3;
#X obj 265 364 osc~;
#X obj 265 410 *~ 0.5;
#X obj 259 315 * 1.5;
#X obj 301 369 osc~;
#X obj 358 130 OSC/routeOSC /spec_c /hj_act /hj_mob /hj_com;
#X obj 363 294 *~ 0.7;
#X obj 377 378 *~, f 4;
#X obj 378 458 *~;
#X floatatom 463 187 5 0 0 0 - - -, f 5;
#X floatatom 556 185 5 0 0 0 - - -, f 5;
#X obj 427 334 / 10;
#X obj 496 160 * 1650;
#N canvas 0 23 1223 787 bass-synth 0;
#X obj -204 291 mtof;
#X obj 42 702 *~;
#X obj -231 347 phasor~;
#X obj -220 566 vcf~ 1;
#X obj -280 448 hip~ 10;
#X obj -328 355 phasor~;
#X obj -334 311 mtof;
#X obj -209 214 + 0.05;
#X obj -328 216 - 0.05;
#X obj -110 245 loadbang;
#X obj 203 481 line~;
#X obj -266 221 mtof;
#X obj -262 299 osc~;
#X obj -173 518 +~;
#X obj -105 479 *~ 30;
#X msg 211 446 0 481;
#X msg 309 353 set 0 \$1;
#X obj 371 295 random 300;
#X obj 377 321 + 400;
#X obj 220 384 t b b;
#X obj -60 442 mtof;
#X msg -144 432 1;
#X obj -197 468 mtof;
#X msg -178 426 12;
#X obj -15 382 random 30;
#X obj -41 410 + 12;
#X msg 259 451 0.7;
#X obj 182 532 lop~ 30;
#X obj 191 507 *~;
#N canvas 70 55 473 398 dist1 0;
#X obj 126 115 hsl 128 8 1 5 0 1 empty empty empty -2 -6 0 8 -262144
-1 -1 8800 1;
#X obj 126 129 hsl 128 8 0.1 0.8 0 1 empty empty empty -2 -6 0 8 -262144
-1 -1 5500 1;
#X obj -63 93 inlet~;
#X obj -67 236 /~;
#X obj -39 177 abs~;
#X obj -24 209 +~;
#X obj -60 130 *~;
#X obj -65 277 outlet~;
#X text 101 181 needs pd >=0.42-5 or zexy;
#X connect 0 0 6 1;
#X connect 1 0 5 1;
#X connect 2 0 6 0;
#X connect 3 0 7 0;
#X connect 4 0 5 0;
#X connect 5 0 3 1;
#X connect 6 0 3 0;
#X connect 6 0 4 0;
#X coords 0 -1 1 1 160 40 1 100 100;
#X restore 41 728 pd dist1;
#X obj 354 669 *~ 0.7;
#X obj 153 133 metro 100;
#X obj -189 108 inlet;
#X obj 110 90 loadbang;
#X obj 214 94 inlet;
#X obj 435 713 outlet~;
#X connect 0 0 2 0;
#X connect 1 0 29 0;
#X connect 2 0 4 0;
#X connect 3 0 1 0;
#X connect 4 0 3 0;
#X connect 5 0 4 0;
#X connect 6 0 5 0;
#X connect 7 0 0 0;
#X connect 8 0 6 0;
#X connect 9 0 21 0;
#X connect 9 0 23 0;
#X connect 10 0 28 0;
#X connect 10 0 28 1;
#X connect 11 0 12 0;
#X connect 12 0 4 0;
#X connect 13 0 3 1;
#X connect 14 0 13 1;
#X connect 15 0 10 0;
#X connect 16 0 15 0;
#X connect 17 0 18 0;
#X connect 18 0 16 0;
#X connect 19 0 15 0;
#X connect 19 1 26 0;
#X connect 20 0 14 1;
#X connect 21 0 3 2;
#X connect 22 0 13 0;
#X connect 23 0 22 0;
#X connect 24 0 25 0;
#X connect 25 0 20 0;
#X connect 26 0 10 0;
#X connect 27 0 1 1;
#X connect 27 0 14 0;
#X connect 28 0 27 0;
#X connect 29 0 30 0;
#X connect 30 0 35 0;
#X connect 31 0 24 0;
#X connect 31 0 19 0;
#X connect 31 0 17 0;
#X connect 32 0 8 0;
#X connect 32 0 11 0;
#X connect 32 0 7 0;
#X connect 33 0 31 0;
#X connect 34 0 31 1;
#X restore 366 241 pd bass-synth;
#X obj 459 215 - 200;
#X floatatom 482 296 5 0 0 0 - - -, f 5;
#X obj 358 178 + 10;
#X obj 548 237 *;
#X obj 525 349 osc~;
#X obj 532 281 / 50000;
#X obj 517 459 *~ 0.1;
#X obj 559 340 * 2;
#X obj 555 364 osc~;
#X obj 597 338 * 3;
#X obj 596 363 osc~;
#X obj 596 409 *~ 0.5;
#X obj 590 314 * 1.5;
#X obj 632 368 osc~;
#X obj 679 126 OSC/routeOSC /spec_c /hj_act /hj_mob /hj_com;
#X obj 684 290 *~ 0.7;
#X obj 698 374 *~, f 4;
#X obj 699 454 *~;
#X floatatom 784 183 5 0 0 0 - - -, f 5;
#X floatatom 877 181 5 0 0 0 - - -, f 5;
#X obj 731 341 / 10;
#X obj 817 156 * 1650;
#N canvas 0 23 1223 787 bass-synth 0;
#X obj -204 291 mtof;
#X obj 42 702 *~;
#X obj -231 347 phasor~;
#X obj -220 566 vcf~ 1;
#X obj -280 448 hip~ 10;
#X obj -328 355 phasor~;
#X obj -334 311 mtof;
#X obj -209 214 + 0.05;
#X obj -328 216 - 0.05;
#X obj -110 245 loadbang;
#X obj 203 481 line~;
#X obj -266 221 mtof;
#X obj -262 299 osc~;
#X obj -173 518 +~;
#X obj -105 479 *~ 30;
#X msg 211 446 0 460;
#X msg 309 353 set 0 \$1;
#X obj 371 295 random 300;
#X obj 377 321 + 400;
#X obj 220 384 t b b;
#X obj -60 442 mtof;
#X msg -144 432 1;
#X obj -197 468 mtof;
#X msg -178 426 12;
#X obj -15 382 random 30;
#X obj -41 410 + 12;
#X msg 259 451 0.7;
#X obj 182 532 lop~ 30;
#X obj 191 507 *~;
#N canvas 70 55 473 398 dist1 0;
#X obj 126 115 hsl 128 8 1 5 0 1 empty empty empty -2 -6 0 8 -262144
-1 -1 8800 1;
#X obj 126 129 hsl 128 8 0.1 0.8 0 1 empty empty empty -2 -6 0 8 -262144
-1 -1 5500 1;
#X obj -63 93 inlet~;
#X obj -67 236 /~;
#X obj -39 177 abs~;
#X obj -24 209 +~;
#X obj -60 130 *~;
#X obj -65 277 outlet~;
#X text 101 181 needs pd >=0.42-5 or zexy;
#X connect 0 0 6 1;
#X connect 1 0 5 1;
#X connect 2 0 6 0;
#X connect 3 0 7 0;
#X connect 4 0 5 0;
#X connect 5 0 3 1;
#X connect 6 0 3 0;
#X connect 6 0 4 0;
#X coords 0 -1 1 1 160 40 1 100 100;
#X restore 41 728 pd dist1;
#X obj 354 669 *~ 0.7;
#X obj 153 133 metro 100;
#X obj -189 108 inlet;
#X obj 110 90 loadbang;
#X obj 214 94 inlet;
#X obj 435 713 outlet~;
#X connect 0 0 2 0;
#X connect 1 0 29 0;
#X connect 2 0 4 0;
#X connect 3 0 1 0;
#X connect 4 0 3 0;
#X connect 5 0 4 0;
#X connect 6 0 5 0;
#X connect 7 0 0 0;
#X connect 8 0 6 0;
#X connect 9 0 21 0;
#X connect 9 0 23 0;
#X connect 10 0 28 0;
#X connect 10 0 28 1;
#X connect 11 0 12 0;
#X connect 12 0 4 0;
#X connect 13 0 3 1;
#X connect 14 0 13 1;
#X connect 15 0 10 0;
#X connect 16 0 15 0;
#X connect 17 0 18 0;
#X connect 18 0 16 0;
#X connect 19 0 15 0;
#X connect 19 1 26 0;
#X connect 20 0 14 1;
#X connect 21 0 3 2;
#X connect 22 0 13 0;
#X connect 23 0 22 0;
#X connect 24 0 25 0;
#X connect 25 0 20 0;
#X connect 26 0 10 0;
#X connect 27 0 1 1;
#X connect 27 0 14 0;
#X connect 28 0 27 0;
#X connect 29 0 30 0;
#X connect 30 0 35 0;
#X connect 31 0 24 0;
#X connect 31 0 19 0;
#X connect 31 0 17 0;
#X connect 32 0 8 0;
#X connect 32 0 11 0;
#X connect 32 0 7 0;
#X connect 33 0 31 0;
#X connect 34 0 31 1;
#X restore 687 237 pd bass-synth;
#X obj 780 211 - 200;
#X floatatom 803 292 5 0 0 0 - - -, f 5;
#X obj 679 174 + 10;
#X obj 869 233 *;
#X obj 846 345 osc~;
#X obj 853 277 / 50000;
#X obj 838 455 *~ 0.1;
#X obj 880 336 * 2;
#X obj 876 360 osc~;
#X obj 918 334 * 3;
#X obj 917 359 osc~;
#X obj 917 405 *~ 0.5;
#X obj 911 310 * 1.5;
#X obj 953 364 osc~;
#X obj 988 124 OSC/routeOSC /spec_c /hj_act /hj_mob /hj_com;
#X obj 992 283 *~ 0.7;
#X obj 1006 367 *~, f 4;
#X obj 1007 447 *~;
#X floatatom 1092 176 5 0 0 0 - - -, f 5;
#X floatatom 1185 174 5 0 0 0 - - -, f 5;
#X obj 1056 323 / 10;
#X obj 1125 149 * 1650;
#N canvas 0 23 1223 787 bass-synth 0;
#X obj -204 291 mtof;
#X obj 42 702 *~;
#X obj -231 347 phasor~;
#X obj -220 566 vcf~ 1;
#X obj -280 448 hip~ 10;
#X obj -328 355 phasor~;
#X obj -334 311 mtof;
#X obj -209 214 + 0.05;
#X obj -328 216 - 0.05;
#X obj -110 245 loadbang;
#X obj 203 481 line~;
#X obj -266 221 mtof;
#X obj -262 299 osc~;
#X obj -173 518 +~;
#X obj -105 479 *~ 30;
#X msg 211 446 0 533;
#X msg 309 353 set 0 \$1;
#X obj 371 295 random 300;
#X obj 377 321 + 400;
#X obj 220 384 t b b;
#X obj -60 442 mtof;
#X msg -144 432 1;
#X obj -197 468 mtof;
#X msg -178 426 12;
#X obj -15 382 random 30;
#X obj -41 410 + 12;
#X msg 259 451 0.7;
#X obj 182 532 lop~ 30;
#X obj 191 507 *~;
#N canvas 70 55 473 398 dist1 0;
#X obj 126 115 hsl 128 8 1 5 0 1 empty empty empty -2 -6 0 8 -262144
-1 -1 8800 1;
#X obj 126 129 hsl 128 8 0.1 0.8 0 1 empty empty empty -2 -6 0 8 -262144
-1 -1 5500 1;
#X obj -63 93 inlet~;
#X obj -67 236 /~;
#X obj -39 177 abs~;
#X obj -24 209 +~;
#X obj -60 130 *~;
#X obj -65 277 outlet~;
#X text 101 181 needs pd >=0.42-5 or zexy;
#X connect 0 0 6 1;
#X connect 1 0 5 1;
#X connect 2 0 6 0;
#X connect 3 0 7 0;
#X connect 4 0 5 0;
#X connect 5 0 3 1;
#X connect 6 0 3 0;
#X connect 6 0 4 0;
#X coords 0 -1 1 1 160 40 1 100 100;
#X restore 41 728 pd dist1;
#X obj 354 669 *~ 0.7;
#X obj 153 133 metro 100;
#X obj -189 108 inlet;
#X obj 110 90 loadbang;
#X obj 214 94 inlet;
#X obj 435 713 outlet~;
#X connect 0 0 2 0;
#X connect 1 0 29 0;
#X connect 2 0 4 0;
#X connect 3 0 1 0;
#X connect 4 0 3 0;
#X connect 5 0 4 0;
#X connect 6 0 5 0;
#X connect 7 0 0 0;
#X connect 8 0 6 0;
#X connect 9 0 21 0;
#X connect 9 0 23 0;
#X connect 10 0 28 0;
#X connect 10 0 28 1;
#X connect 11 0 12 0;
#X connect 12 0 4 0;
#X connect 13 0 3 1;
#X connect 14 0 13 1;
#X connect 15 0 10 0;
#X connect 16 0 15 0;
#X connect 17 0 18 0;
#X connect 18 0 16 0;
#X connect 19 0 15 0;
#X connect 19 1 26 0;
#X connect 20 0 14 1;
#X connect 21 0 3 2;
#X connect 22 0 13 0;
#X connect 23 0 22 0;
#X connect 24 0 25 0;
#X connect 25 0 20 0;
#X connect 26 0 10 0;
#X connect 27 0 1 1;
#X connect 27 0 14 0;
#X connect 28 0 27 0;
#X connect 29 0 30 0;
#X connect 30 0 35 0;
#X connect 31 0 24 0;
#X connect 31 0 19 0;
#X connect 31 0 17 0;
#X connect 32 0 8 0;
#X connect 32 0 11 0;
#X connect 32 0 7 0;
#X connect 33 0 31 0;
#X connect 34 0 31 1;
#X restore 995 230 pd bass-synth;
#X obj 1088 204 - 200;
#X floatatom 1111 285 5 0 0 0 - - -, f 5;
#X obj 987 167 + 10;
#X obj 1177 226 *;
#X obj 1154 338 osc~;
#X obj 1161 270 / 50000;
#X obj 1146 448 *~ 0.1;
#X obj 1188 329 * 2;
#X obj 1184 353 osc~;
#X obj 1226 327 * 3;
#X obj 1225 352 osc~;
#X obj 1225 398 *~ 0.5;
#X obj 1219 303 * 1.5;
#X obj 1261 357 osc~;
#X text 59 579 channel 1 - frontal;
#X text 397 543 channel 2 - right temporal;
#X text 733 551 channel 3 - parieto-occipital;
#X text 1109 550 channel 4 - left temporal;
#N canvas 0 22 450 278 (subpatch) 0;
#X array ch1 100 float 3;
#A 0 0.201697 0.194849 0.188023 0.181225 0.174454 0.167709 0.160985
0.154287 0.147615 0.140967 0.134338 0.127734 0.121155 0.114596 0.108056
0.101537 0.095043 0.0885655 0.0821061 0.0756645 0.0692461 0.0628415
0.0564536 0.0500814 0.0437301 0.0373906 0.0310657 0.0247559 0.0184642
0.0121835 0.0059161 -0.000338021 -0.00657379 -0.0128027 -0.0190149
-0.0252176 -0.0314002 -0.0375787 -0.043738 -0.0498915 -0.0560219 -0.0621511
-0.068256 -0.0743589 -0.0804348 -0.0865086 -0.0925586 -0.0986012 -0.104623
-0.110633 -0.116624 -0.122598 -0.128559 -0.134496 -0.140421 -0.146317
-0.152203 -0.15806 -0.1639 -0.169716 -0.175509 -0.181281 -0.187022
-0.192748 -0.198437 -0.20411 -0.209741 -0.215356 -0.220934 -0.226486
-0.232006 -0.237495 -0.242957 -0.248376 -0.253774 -0.259126 -0.26446
-0.269738 -0.274997 -0.280212 -0.285398 -0.290541 -0.295649 -0.300725
-0.305758 -0.31076 -0.315714 -0.320647 -0.325525 -0.330377 -0.335183
-0.33996 -0.344696 -0.349392 -0.354059 -0.358681 -0.363279 -0.367824
-0.372355 -0.376829;
#X coords 0 1 100 -1 200 140 1;
#X restore 71 682 graph;
#X obj 246 623 metro 100;
#X obj 259 584 loadbang;
#X obj 358 678 tabwrite~ ch1;
#N canvas 0 22 450 278 (subpatch) 0;
#X array ch2 100 float 3;
#A 0 0.00466665 0.0175638 0.0304537 0.0433256 0.0561883 0.0690383 0.0818809
0.0947058 0.10752 0.120322 0.133115 0.145892 0.158656 0.171411 0.184154
0.196884 0.209598 0.222305 0.234998 0.247681 0.260344 0.273005 0.285647
0.298281 0.310894 0.323504 0.336096 0.348678 0.361241 0.373796 0.386336
0.398861 0.41137 0.423864 0.436348 0.448808 0.461258 0.473683 0.486103
0.498489 0.510866 0.523214 0.535552 0.54786 0.560147 0.57241 0.584649
0.596866 0.609046 0.62121 0.633332 0.645441 0.657496 0.669535 0.68153
0.693498 0.70542 0.717307 0.729159 0.740965 0.752735 0.764447 0.776134
0.787757 0.799342 0.81087 0.822355 0.833789 0.845161 0.856489 0.86775
0.878974 0.890112 0.901213 0.912237 0.923216 0.934117 0.944961 0.955742
0.966454 0.977105 0.987675 0.998198 1.00863 1.01901 1.0293 1.03953
1.04969 1.05977 1.06978 1.07971 1.08958 1.09936 1.10909 1.11871 1.12829
1.13777 1.14719 1.15651 1.16578;
#X coords 0 1 100 -1 200 140 1;
#X restore 447 692 graph;
#X obj 358 655 tabwrite~ ch2;
#N canvas 0 22 450 278 (subpatch) 0;
#X array ch3 100 float 3;
#A 0 0.00947167 0.0106076 0.0117525 0.0129008 0.0140548 0.0152149 0.0163789
0.017553 0.0187296 0.0199125 0.0211004 0.0222925 0.0234939 0.024698
0.0259088 0.0271234 0.0283428 0.0295706 0.030801 0.032039 0.0332791
0.034525 0.0357782 0.0370348 0.038298 0.0395628 0.0408341 0.0421116
0.0433935 0.0446808 0.0459692 0.0472649 0.0485657 0.0498717 0.0511821
0.0524934 0.0538122 0.0551349 0.0564639 0.0577964 0.0591301 0.0604703
0.0618138 0.0631647 0.0645182 0.0658731 0.0672334 0.0685968 0.0699682
0.0713416 0.0727164 0.0740958 0.0754787 0.0768685 0.0782605 0.0796543
0.0810514 0.0824526 0.0838597 0.0852687 0.0866805 0.0880941 0.0895125
0.0909354 0.0923607 0.0937888 0.0952177 0.0966519 0.0980895 0.09953
0.100973 0.102416 0.103864 0.105315 0.10677 0.108226 0.109682 0.111144
0.112607 0.114074 0.115542 0.11701 0.118483 0.119956 0.121435 0.122914
0.124392 0.125875 0.127358 0.128846 0.130335 0.131822 0.133313 0.134805
0.136301 0.137798 0.139293 0.140791 0.14229 0.143792;
#X coords 0 1 100 -1 200 140 1;
#X restore 749 687 graph;
#X obj 357 699 tabwrite~ ch3;
#N canvas 0 22 450 278 (subpatch) 0;
#X array ch4 100 float 3;
#A 0 0.0902184 0.092603 0.0949892 0.0973755 0.0997621 0.102139 0.104516
0.106896 0.109274 0.111653 0.114022 0.116391 0.118763 0.121131 0.1235
0.12586 0.128219 0.130581 0.132938 0.135295 0.137645 0.139991 0.142342
0.144685 0.147029 0.149367 0.151701 0.154037 0.156367 0.158696 0.16102
0.163338 0.165658 0.167973 0.170285 0.172594 0.174896 0.177199 0.179496
0.18179 0.184082 0.186366 0.188649 0.190928 0.193202 0.195476 0.19774
0.200002 0.202261 0.204514 0.206766 0.209009 0.21125 0.213487 0.215717
0.217946 0.220168 0.222384 0.224598 0.226803 0.229008 0.231206 0.233397
0.235586 0.237765 0.239944 0.242117 0.244282 0.246443 0.248595 0.250747
0.252894 0.255029 0.257162 0.259286 0.261409 0.263528 0.265633 0.267735
0.26983 0.271922 0.274012 0.276085 0.278156 0.28022 0.28228 0.284339
0.286379 0.288417 0.290448 0.292475 0.294499 0.296507 0.29851 0.300508
0.3025 0.304489 0.306462 0.30843 0.310393;
#X coords 0 1 100 -1 200 140 1;
#X restore 1062 684 graph;
#X obj 357 722 tabwrite~ ch4;
#N canvas 744 48 555 455 beat 0;
#X obj 218 289 osc~;
#X obj 195 182 mtof;
#X obj 275 133 t b b;
#X obj 304 274 line~;
#X obj 239 354 *~;
#X obj 280 317 clip~ 0 1;
#X msg 327 203 100;
#X obj 247 192 pack f f;
#X msg 253 161 0;
#X obj 214 259 +~;
#X obj 209 224 sig~;
#X text 365 112 len;
#X obj 489 206 osc~ 440;
#X obj 272 104 metro 200;
#X obj 263 67 loadbang;
#X obj 338 76 inlet;
#X obj 430 101 inlet;
#X obj 327 418 outlet~;
#X msg 137 141 30;
#X msg 67 154 40;
#X obj 50 20 inlet;
#X obj 50 54 f;
#X obj 60 89 >;
#X msg 103 51 1.5;
#X obj 58 116 sel 0 1;
#X connect 0 0 4 0;
#X connect 1 0 10 0;
#X connect 2 0 8 0;
#X connect 2 1 6 0;
#X connect 3 0 5 0;
#X connect 4 0 17 0;
#X connect 5 0 4 1;
#X connect 6 0 3 0;
#X connect 7 0 3 0;
#X connect 8 0 7 0;
#X connect 9 0 0 0;
#X connect 10 0 9 0;
#X connect 12 0 9 1;
#X connect 13 0 2 0;
#X connect 14 0 13 0;
#X connect 14 0 23 0;
#X connect 15 0 13 1;
#X connect 16 0 7 1;
#X connect 18 0 1 0;
#X connect 19 0 1 0;
#X connect 20 0 21 0;
#X connect 21 0 22 0;
#X connect 22 0 24 0;
#X connect 23 0 22 1;
#X connect 24 0 19 0;
#X connect 24 1 18 0;
#X restore 255 507 pd beat;
#X obj 607 493 f;
#N canvas 744 48 555 455 beat 0;
#X obj 218 289 osc~;
#X obj 195 182 mtof;
#X obj 275 133 t b b;
#X obj 304 274 line~;
#X obj 239 354 *~;
#X obj 280 317 clip~ 0 1;
#X msg 327 203 100;
#X obj 247 192 pack f f;
#X msg 253 161 0;
#X obj 214 259 +~;
#X obj 209 224 sig~;
#X text 365 112 len;
#X obj 489 206 osc~ 440;
#X obj 272 104 metro 200;
#X obj 263 67 loadbang;
#X obj 338 76 inlet;
#X obj 430 101 inlet;
#X obj 327 418 outlet~;
#X msg 137 141 30;
#X msg 67 154 40;
#X obj 50 20 inlet;
#X obj 50 54 f;
#X obj 60 89 >;
#X msg 103 67 1.5;
#X obj 58 116 sel 0 1;
#X connect 0 0 4 0;
#X connect 1 0 10 0;
#X connect 2 0 8 0;
#X connect 2 1 6 0;
#X connect 3 0 5 0;
#X connect 4 0 17 0;
#X connect 5 0 4 1;
#X connect 6 0 3 0;
#X connect 7 0 3 0;
#X connect 8 0 7 0;
#X connect 9 0 0 0;
#X connect 10 0 9 0;
#X connect 12 0 9 1;
#X connect 13 0 2 0;
#X connect 14 0 13 0;
#X connect 14 0 23 0;
#X connect 15 0 13 1;
#X connect 16 0 7 1;
#X connect 18 0 1 0;
#X connect 19 0 1 0;
#X connect 20 0 21 0;
#X connect 21 0 22 0;
#X connect 22 0 24 0;
#X connect 23 0 22 1;
#X connect 24 0 19 0;
#X connect 24 1 18 0;
#X restore 437 508 pd beat;
#X text 56 599 channel 1 - left 1-20Hz;
#X text 407 564 channel 2 - right 1-20Hz;
#X text 764 581 channel 3 - left 20-40Hz;
#N canvas 744 48 555 455 beat 0;
#X obj 218 289 osc~;
#X obj 195 182 mtof;
#X obj 275 133 t b b;
#X obj 304 274 line~;
#X obj 239 354 *~;
#X obj 280 317 clip~ 0 1;
#X msg 327 203 100;
#X obj 247 192 pack f f;
#X msg 253 161 0;
#X obj 214 259 +~;
#X obj 209 224 sig~;
#X text 365 112 len;
#X obj 489 206 osc~ 440;
#X obj 272 104 metro 200;
#X obj 263 67 loadbang;
#X obj 338 76 inlet;
#X obj 430 101 inlet;
#X obj 327 418 outlet~;
#X msg 137 141 30;
#X msg 67 154 40;
#X obj 50 20 inlet;
#X obj 50 54 f;
#X obj 60 89 >;
#X msg 103 51 1.5;
#X obj 58 116 sel 0 1;
#X connect 0 0 4 0;
#X connect 1 0 10 0;
#X connect 2 0 8 0;
#X connect 2 1 6 0;
#X connect 3 0 5 0;
#X connect 4 0 17 0;
#X connect 5 0 4 1;
#X connect 6 0 3 0;
#X connect 7 0 3 0;
#X connect 8 0 7 0;
#X connect 9 0 0 0;
#X connect 10 0 9 0;
#X connect 12 0 9 1;
#X connect 13 0 2 0;
#X connect 14 0 13 0;
#X connect 14 0 23 0;
#X connect 15 0 13 1;
#X connect 16 0 7 1;
#X connect 18 0 1 0;
#X connect 19 0 1 0;
#X connect 20 0 21 0;
#X connect 21 0 22 0;
#X connect 22 0 24 0;
#X connect 23 0 22 1;
#X connect 24 0 19 0;
#X connect 24 1 18 0;
#X restore 1194 508 pd beat;
#N canvas 744 48 555 455 beat 0;
#X obj 218 289 osc~;
#X obj 195 182 mtof;
#X obj 275 133 t b b;
#X obj 304 274 line~;
#X obj 239 354 *~;
#X obj 280 317 clip~ 0 1;
#X msg 327 203 100;
#X obj 247 192 pack f f;
#X msg 253 161 0;
#X obj 214 259 +~;
#X obj 209 224 sig~;
#X text 365 112 len;
#X obj 489 206 osc~ 440;
#X obj 272 104 metro 200;
#X obj 263 67 loadbang;
#X obj 338 76 inlet;
#X obj 430 101 inlet;
#X obj 327 418 outlet~;
#X msg 137 141 30;
#X msg 67 154 40;
#X obj 50 20 inlet;
#X obj 50 54 f;
#X obj 60 89 >;
#X msg 103 51 1.5;
#X obj 58 116 sel 0 1;
#X connect 0 0 4 0;
#X connect 1 0 10 0;
#X connect 2 0 8 0;
#X connect 2 1 6 0;
#X connect 3 0 5 0;
#X connect 4 0 17 0;
#X connect 5 0 4 1;
#X connect 6 0 3 0;
#X connect 7 0 3 0;
#X connect 8 0 7 0;
#X connect 9 0 0 0;
#X connect 10 0 9 0;
#X connect 12 0 9 1;
#X connect 13 0 2 0;
#X connect 14 0 13 0;
#X connect 14 0 23 0;
#X connect 15 0 13 1;
#X connect 16 0 7 1;
#X connect 18 0 1 0;
#X connect 19 0 1 0;
#X connect 20 0 21 0;
#X connect 21 0 22 0;
#X connect 22 0 24 0;
#X connect 23 0 22 1;
#X connect 24 0 19 0;
#X connect 24 1 18 0;
#X restore 930 566 pd beat;
#X text 1012 68 metro;
#X text 1018 -26 len;
#X floatatom 1015 89 5 0 0 0 - - -, f 5;
#X floatatom 1014 -9 5 0 0 0 - - -, f 5;
#X obj 750 391 *~ 0.4;
#X obj 1082 398 *~ 0.4;
#X floatatom 1008 34 5 0 0 0 - - -, f 5;
#X obj 1041 456 / 10;
#X text 1008 22 beat volume;
#X text 449 29 metro;
#X text 455 -65 len;
#X floatatom 452 50 5 0 0 0 - - -, f 5;
#X floatatom 451 -48 5 0 0 0 - - -, f 5;
#X floatatom 445 -5 5 0 0 0 - - -, f 5;
#X text 445 -17 beat volume;
#X obj 121 456 / 10;
#X obj 99 380 *~ 0.4;
#X obj 432 383 *~ 0.4;
#X text 1107 569 channel 4 - right 20-40Hz;
#X connect 0 0 1 0;
#X connect 1 0 2 0;
#X connect 2 0 4 0;
#X connect 2 1 32 0;
#X connect 2 2 55 0;
#X connect 2 3 78 0;
#X connect 4 0 20 0;
#X connect 4 1 23 0;
#X connect 4 2 14 0;
#X connect 4 3 12 0;
#X connect 4 3 115 0;
#X connect 5 0 7 0;
#X connect 6 0 10 1;
#X connect 6 0 35 1;
#X connect 6 0 58 1;
#X connect 6 0 81 1;
#X connect 7 0 10 0;
#X connect 8 0 13 0;
#X connect 8 0 38 0;
#X connect 8 0 61 0;
#X connect 8 0 84 0;
#X connect 10 0 108 0;
#X connect 10 0 16 0;
#X connect 11 0 18 0;
#X connect 12 0 21 0;
#X connect 12 0 30 1;
#X connect 13 0 7 1;
#X connect 14 0 11 0;
#X connect 17 0 5 0;
#X connect 18 0 17 1;
#X connect 20 0 17 0;
#X connect 21 0 20 1;
#X connect 22 0 24 0;
#X connect 23 0 22 0;
#X connect 23 0 25 0;
#X connect 23 0 27 0;
#X connect 23 0 30 0;
#X connect 24 0 7 0;
#X connect 25 0 26 0;
#X connect 26 0 24 0;
#X connect 27 0 28 0;
#X connect 28 0 29 0;
#X connect 29 0 24 0;
#X connect 30 0 31 0;
#X connect 31 0 24 0;
#X connect 32 0 43 0;
#X connect 32 1 46 0;
#X connect 32 2 39 0;
#X connect 32 3 37 0;
#X connect 32 3 117 0;
#X connect 33 0 34 0;
#X connect 34 0 35 0;
#X connect 35 0 110 0;
#X connect 35 0 16 1;
#X connect 36 0 41 0;
#X connect 37 0 44 0;
#X connect 37 0 53 1;
#X connect 38 0 34 1;
#X connect 39 0 36 0;
#X connect 40 0 33 0;
#X connect 41 0 40 1;
#X connect 43 0 40 0;
#X connect 44 0 43 1;
#X connect 45 0 47 0;
#X connect 46 0 45 0;
#X connect 46 0 48 0;
#X connect 46 0 50 0;
#X connect 46 0 53 0;
#X connect 47 0 34 0;
#X connect 48 0 49 0;
#X connect 49 0 47 0;
#X connect 50 0 51 0;
#X connect 51 0 52 0;
#X connect 52 0 47 0;
#X connect 53 0 54 0;
#X connect 54 0 47 0;
#X connect 55 0 66 0;
#X connect 55 1 69 0;
#X connect 55 2 62 0;
#X connect 55 3 60 0;
#X connect 55 3 122 0;
#X connect 56 0 57 0;
#X connect 57 0 58 0;
#X connect 58 0 112 0;
#X connect 58 0 16 2;
#X connect 59 0 64 0;
#X connect 60 0 67 0;
#X connect 60 0 76 1;
#X connect 61 0 57 1;
#X connect 62 0 59 0;
#X connect 63 0 56 0;
#X connect 64 0 63 1;
#X connect 66 0 63 0;
#X connect 67 0 66 1;
#X connect 68 0 70 0;
#X connect 69 0 68 0;
#X connect 69 0 71 0;
#X connect 69 0 73 0;
#X connect 69 0 76 0;
#X connect 70 0 57 0;
#X connect 71 0 72 0;
#X connect 72 0 70 0;
#X connect 73 0 74 0;
#X connect 74 0 75 0;
#X connect 75 0 70 0;
#X connect 76 0 77 0;
#X connect 77 0 70 0;
#X connect 78 0 89 0;
#X connect 78 1 92 0;
#X connect 78 2 85 0;
#X connect 78 3 83 0;
#X connect 78 3 121 0;
#X connect 79 0 80 0;
#X connect 80 0 81 0;
#X connect 81 0 16 3;
#X connect 81 0 114 0;
#X connect 82 0 87 0;
#X connect 83 0 90 0;
#X connect 83 0 99 1;
#X connect 84 0 80 1;
#X connect 85 0 82 0;
#X connect 86 0 79 0;
#X connect 87 0 86 1;
#X connect 89 0 86 0;
#X connect 90 0 89 1;
#X connect 91 0 93 0;
#X connect 92 0 91 0;
#X connect 92 0 94 0;
#X connect 92 0 96 0;
#X connect 92 0 99 0;
#X connect 93 0 80 0;
#X connect 94 0 95 0;
#X connect 95 0 93 0;
#X connect 96 0 97 0;
#X connect 97 0 98 0;
#X connect 98 0 93 0;
#X connect 99 0 100 0;
#X connect 100 0 93 0;
#X connect 106 0 108 0;
#X connect 106 0 110 0;
#X connect 106 0 112 0;
#X connect 106 0 114 0;
#X connect 107 0 106 0;
#X connect 115 0 139 0;
#X connect 117 0 140 0;
#X connect 121 0 128 0;
#X connect 122 0 127 0;
#X connect 125 0 122 1;
#X connect 125 0 121 1;
#X connect 126 0 122 2;
#X connect 126 0 121 2;
#X connect 127 0 57 0;
#X connect 128 0 80 0;
#X connect 129 0 130 0;
#X connect 130 0 128 1;
#X connect 130 0 127 1;
#X connect 134 0 117 1;
#X connect 134 0 115 1;
#X connect 135 0 117 2;
#X connect 135 0 115 2;
#X connect 136 0 138 0;
#X connect 138 0 139 1;
#X connect 138 0 140 1;
#X connect 139 0 7 0;
#X connect 140 0 34 0;
