#N canvas 88 23 1161 719 10;
#X obj -204 291 mtof;
#X obj 42 702 *~;
#X obj -231 347 phasor~;
#X obj -220 566 vcf~ 1;
#X obj -280 448 hip~ 10;
#X obj -328 355 phasor~;
#X obj -334 311 mtof;
#X obj -209 214 + 0.05;
#X obj -328 216 - 0.05;
#X obj -110 245 loadbang;
#X obj 203 481 line~;
#X obj -266 221 mtof;
#X obj -262 299 osc~;
#X obj -173 518 +~;
#X obj -105 479 *~ 30;
#X msg 211 446 0 563;
#X msg 309 353 set 0 \$1;
#X obj 371 295 random 300;
#X obj 377 321 + 400;
#X obj 220 384 t b b;
#X obj -60 442 mtof;
#X msg -144 432 1;
#X obj -197 468 mtof;
#X msg -178 426 12;
#X obj -15 382 random 30;
#X obj -41 410 + 12;
#X msg 259 451 0.7;
#X obj 182 532 lop~ 30;
#X obj 191 507 *~;
#N canvas 70 55 473 398 dist1 0;
#X obj 126 115 hsl 128 8 1 5 0 1 empty empty empty -2 -6 0 8 -262144
-1 -1 8800 1;
#X obj 126 129 hsl 128 8 0.1 0.8 0 1 empty empty empty -2 -6 0 8 -262144
-1 -1 5500 1;
#X obj -63 93 inlet~;
#X obj -67 236 /~;
#X obj -39 177 abs~;
#X obj -24 209 +~;
#X obj -60 130 *~;
#X obj -65 277 outlet~;
#X text 101 181 needs pd >=0.42-5 or zexy;
#X connect 0 0 6 1;
#X connect 1 0 5 1;
#X connect 2 0 6 0;
#X connect 3 0 7 0;
#X connect 4 0 5 0;
#X connect 5 0 3 1;
#X connect 6 0 3 0;
#X connect 6 0 4 0;
#X coords 0 -1 1 1 160 40 1 100 100;
#X restore 41 728 pd dist1;
#X obj 354 669 *~ 0.7;
#X obj 153 133 metro 100;
#X obj -189 108 inlet;
#X obj 110 90 loadbang;
#X obj 214 94 inlet;
#X obj 435 713 outlet~;
#X connect 0 0 2 0;
#X connect 1 0 29 0;
#X connect 2 0 4 0;
#X connect 3 0 1 0;
#X connect 4 0 3 0;
#X connect 5 0 4 0;
#X connect 6 0 5 0;
#X connect 7 0 0 0;
#X connect 8 0 6 0;
#X connect 9 0 21 0;
#X connect 9 0 23 0;
#X connect 10 0 28 0;
#X connect 10 0 28 1;
#X connect 11 0 12 0;
#X connect 12 0 4 0;
#X connect 13 0 3 1;
#X connect 14 0 13 1;
#X connect 15 0 10 0;
#X connect 16 0 15 0;
#X connect 17 0 18 0;
#X connect 18 0 16 0;
#X connect 19 0 15 0;
#X connect 19 1 26 0;
#X connect 20 0 14 1;
#X connect 21 0 3 2;
#X connect 22 0 13 0;
#X connect 23 0 22 0;
#X connect 24 0 25 0;
#X connect 25 0 20 0;
#X connect 26 0 10 0;
#X connect 27 0 1 1;
#X connect 27 0 14 0;
#X connect 28 0 27 0;
#X connect 29 0 30 0;
#X connect 30 0 35 0;
#X connect 31 0 24 0;
#X connect 31 0 19 0;
#X connect 31 0 17 0;
#X connect 32 0 8 0;
#X connect 32 0 11 0;
#X connect 32 0 7 0;
#X connect 33 0 31 0;
#X connect 34 0 31 1;
