#N canvas 249 151 826 603 10;
#X obj 35 62 osc~;
#X obj 12 -45 mtof;
#X obj 92 -94 t b b;
#X obj 121 47 line~;
#X obj 56 127 *~;
#X obj 97 90 clip~ 0 1;
#X msg 144 -24 100;
#X obj 64 -35 pack f f;
#X msg 70 -66 0;
#X obj 31 32 +~;
#X obj 26 -3 sig~;
#X text 182 -115 len;
#X text 319 -51 fm;
#X obj 173 208 dac~;
#X obj 58 -145 bng 15 250 50 0 empty empty empty 17 7 0 10 -262144
-1 -1;
#X floatatom 18 -132 5 0 0 0 - - -, f 5;
#X floatatom 233 -108 5 0 0 0 - - -, f 5;
#X obj 306 -21 osc~ 440;
#X floatatom 364 -50 5 0 0 0 - - -, f 5;
#X obj 89 -123 metro 200;
#X floatatom 166 -139 5 0 0 0 - - -, f 5;
#X connect 0 0 4 0;
#X connect 1 0 10 0;
#X connect 2 0 8 0;
#X connect 2 1 6 0;
#X connect 3 0 5 0;
#X connect 4 0 13 0;
#X connect 4 0 13 1;
#X connect 5 0 4 1;
#X connect 6 0 3 0;
#X connect 7 0 3 0;
#X connect 8 0 7 0;
#X connect 9 0 0 0;
#X connect 10 0 9 0;
#X connect 14 0 19 0;
#X connect 15 0 1 0;
#X connect 16 0 7 1;
#X connect 17 0 9 1;
#X connect 18 0 17 0;
#X connect 19 0 2 0;
#X connect 20 0 19 1;
